<?xml version="1.0" encoding="UTF-8" standalone="no"?>
<!DOCTYPE svg PUBLIC "-//W3C//DTD SVG 1.1//EN" "http://www.w3.org/Graphics/SVG/1.1/DTD/svg11.dtd">
<svg width="100%" height="100%" viewBox="0 0 512 512" version="1.1" xmlns="http://www.w3.org/2000/svg" xmlns:xlink="http://www.w3.org/1999/xlink" xml:space="preserve" xmlns:serif="http://www.serif.com/" style="fill-rule:evenodd;clip-rule:evenodd;stroke-linejoin:round;stroke-miterlimit:2;">
    <clipPath id="_clip1">
        <path d="M32,255.4C32,320.6 81.5,368 142.7,368L369.3,368C430.5,368 480,320.6 480,255.4C480,190.2 430.5,144 369.3,144L142.7,144C81.5,144 32,190.3 32,255.4ZM404.8,233.3C415.5,233.3 424.2,241.8 424.2,252.3C424.2,262.8 415.5,271.3 404.8,271.3C394.1,271.3 385.4,262.8 385.4,252.3C385.4,241.8 394.1,233.3 404.8,233.3ZM362.3,191.8C373.1,191.8 381.8,200.3 381.8,210.8C381.8,221.3 373.1,229.8 362.3,229.8C351.6,229.8 342.9,221.3 342.9,210.8C342.9,200.3 351.6,191.8 362.3,191.8ZM362.3,274.9C373.1,274.9 381.8,283.3 381.8,293.9C381.8,304.4 373.1,312.8 362.3,312.8C351.6,312.8 342.9,304.3 342.9,293.9C343,283.3 351.6,274.9 362.3,274.9ZM319.8,233.3C330.6,233.3 339.3,241.8 339.3,252.3C339.3,262.8 330.6,271.3 319.8,271.3C309.1,271.3 300.4,262.8 300.4,252.3C300.4,241.8 309.1,233.3 319.8,233.3ZM88,245.3C88,242.6 89.8,240 92.3,240L128,240L128,201.8L128,201.2C128,198.4 130.1,196 132.8,196L154.7,196C157.4,196 160.1,198.4 160.1,201.2L160.1,240L197.9,240C200.6,240 203.1,242.5 203.1,245.3L203.1,267C203.1,269.9 200.6,272 197.9,272L197.4,272L160,272L160,311.1C160,313.9 157.3,316 154.6,316L132.7,316C130.1,316 127.9,314.1 127.9,311.5L127.9,310.4L127.9,272L93.1,272L92.6,272C89.9,272 88,269.9 88,267L88,245.3Z" clip-rule="nonzero"/>
    </clipPath>
    <g clip-path="url(#_clip1)">
        <path d="M390.675,-58.534L391.976,-58.531L393.287,-58.525L394.608,-58.516L395.938,-58.504L397.279,-58.489L398.63,-58.47L399.991,-58.448L401.362,-58.422L402.703,-58.394L403.436,-58.376L404.132,-58.359L404.832,-58.341L405.534,-58.321L406.238,-58.301L406.945,-58.279L407.654,-58.256L408.366,-58.232L409.08,-58.207L409.797,-58.18L410.516,-58.152L411.238,-58.123L411.962,-58.093L412.689,-58.061L413.419,-58.028L414.151,-57.994L414.885,-57.958L415.622,-57.921L416.361,-57.882L417.103,-57.842L417.848,-57.8L418.558,-57.759L421.342,-57.595L424.114,-57.428L425.544,-57.341L426.971,-57.253L428.41,-57.164L429.862,-57.072L431.326,-56.978L432.802,-56.881L434.289,-56.782L435.788,-56.681L437.299,-56.576L438.821,-56.469L440.355,-56.358L441.899,-56.245L443.455,-56.127L445.023,-56.006L446.601,-55.882L448.19,-55.753L449.758,-55.623L450.592,-55.552L451.399,-55.483L452.208,-55.413L453.02,-55.341L453.835,-55.269L454.652,-55.195L455.472,-55.12L456.295,-55.043L457.12,-54.966L457.947,-54.887L458.778,-54.806L459.611,-54.725L460.446,-54.642L461.284,-54.557L462.125,-54.471L462.968,-54.384L463.814,-54.295L464.663,-54.205L465.513,-54.113L466.367,-54.019L467.222,-53.924L468.081,-53.828L468.943,-53.729L469.806,-53.629L470.672,-53.527L471.54,-53.424L472.411,-53.319L473.284,-53.211L474.161,-53.103L475.039,-52.992L475.92,-52.879L476.804,-52.764L477.689,-52.648L478.577,-52.529L479.468,-52.409L480.362,-52.286L481.257,-52.161L482.155,-52.035L483.056,-51.906L483.959,-51.775L484.864,-51.641L485.771,-51.506L486.682,-51.368L487.594,-51.228L488.509,-51.085L489.426,-50.94L490.346,-50.793L491.268,-50.643L492.193,-50.491L493.119,-50.336L494.048,-50.179L494.98,-50.019L495.914,-49.856L496.85,-49.691L497.788,-49.523L498.729,-49.352L499.673,-49.178L500.618,-49.002L501.566,-48.823L502.517,-48.641L503.468,-48.456L504.423,-48.268L505.381,-48.076L506.34,-47.882L507.301,-47.685L508.265,-47.485L509.231,-47.281L510.2,-47.074L511.171,-46.864L512.143,-46.65L513.118,-46.434L514.096,-46.213L515.075,-45.99L516.057,-45.762L517.041,-45.532L518.027,-45.297L519.016,-45.059L520.005,-44.818L520.998,-44.572L521.994,-44.323L522.99,-44.07L523.989,-43.814L524.99,-43.553L525.993,-43.288L526.999,-43.019L527.616,-42.852L527.654,-42.843L527.818,-42.802L528.004,-42.757L528.66,-42.6L529.453,-42.411L530.427,-42.179L531.527,-41.917L532.187,-41.758L532.86,-41.594L533.57,-41.421L534.32,-41.236L535.108,-41.039L535.932,-40.831L536.794,-40.61L537.692,-40.377L538.625,-40.13L539.597,-39.87L540.604,-39.595L541.648,-39.304L542.729,-38.997L543.762,-38.698L544.416,-38.506L544.999,-38.332L545.59,-38.154L546.191,-37.971L546.802,-37.783L547.427,-37.588L548.052,-37.39L548.696,-37.184L549.349,-36.973L550.005,-36.758L550.678,-36.534L551.361,-36.304L552.049,-36.069L552.752,-35.826L553.468,-35.575L554.189,-35.318L554.925,-35.052L555.671,-34.779L556.426,-34.499L557.19,-34.21L557.971,-33.912L558.768,-33.602L559.563,-33.288L560.38,-32.96L561.208,-32.622L562.046,-32.275L562.894,-31.918L563.754,-31.55L564.637,-31.165L565.525,-30.772L566.421,-30.368L567.337,-29.948L568.264,-29.516L569.204,-29.069L570.157,-28.608L571.122,-28.132L572.11,-27.637L573.104,-27.128L574.106,-26.606L575.132,-26.061L576.169,-25.499L577.22,-24.918L578.29,-24.315L579.36,-23.699L580.454,-23.057L581.568,-22.389L582.688,-21.703L583.819,-20.995L584.972,-20.258L586.137,-19.497L587.312,-18.712L588.507,-17.895L589.705,-17.057L590.922,-16.186L592.159,-15.279L593.405,-14.343L594.653,-13.383L595.92,-12.385L597.194,-11.354L598.478,-10.289L599.785,-9.176L601.091,-8.034L602.403,-6.855L603.72,-5.639L604.899,-4.52L605.715,-3.728L606.377,-3.077L607.036,-2.419L607.712,-1.734L608.385,-1.042L609.726,0.357L612.336,3.219L615.498,6.991L618.53,10.941L621.415,15.051L624.128,19.299L626.687,23.716L629.008,28.17L631.127,32.688L633.048,37.302L634.751,41.932L636.228,46.548L637.471,51.056L638.523,55.567L639.371,59.993L640.032,64.32L640.523,68.601L640.84,72.685L641.013,76.63L641.05,80.501L640.967,84.155L640.778,87.725L640.49,91.144L640.123,94.411L639.683,97.53L639.197,100.441L638.65,103.273L638.049,106.029L637.426,108.592L636.778,111.029L636.092,113.402L635.389,115.66L634.692,117.753L633.973,119.792L633.247,121.731L632.543,123.525L631.799,125.332L631.079,127.003L630.368,128.59L629.663,130.105L628.967,131.549L628.259,132.969L627.562,134.322L626.876,135.613L626.227,136.803L625.567,137.981L624.776,139.356L623.689,141.182L622.464,143.151L621.293,144.96L620.175,146.623L619.099,148.172L618.064,149.617L617.077,150.955L616.127,152.21L615.214,153.386L614.333,154.494L613.485,155.539L612.679,156.51L611.903,157.429L611.165,158.286L610.457,159.097L609.761,159.879L609.101,160.611L608.477,161.292L607.876,161.941L607.299,162.555L606.647,163.241L605.735,164.185L604.804,165.129L603.982,165.95L603.265,166.654L602.661,167.242L602.485,167.41L601.922,167.962L601.155,168.703L600.41,169.415L599.68,170.103L598.972,170.764L598.281,171.402L597.607,172.018L596.959,172.604L596.334,173.164L595.727,173.704L595.142,174.22L594.576,174.716L594.032,175.189L593.515,175.635L593.012,176.067L592.532,176.477L592.035,176.9L591.237,177.575L590.667,178.053L595.183,183.333L599.504,189.074L599.508,189.08L604.948,197.569L609.624,206.501L609.626,206.506L613.404,215.546L616.398,224.874L618.587,234.424L618.588,234.428L619.984,244.416L620.5,254.488L620.131,264.566L618.881,274.573L618.881,274.578L617.091,283.136L614.656,291.533L611.59,299.722L607.911,307.653L603.64,315.283L603.638,315.286L598.592,322.856L592.964,330.003L586.789,336.682L580.105,342.853L580.101,342.856L573.233,348.274L572.538,348.741L574.314,349.633L576.532,350.805L578.879,352.11L581.415,353.6L584.083,355.262L586.933,357.147L590.018,359.326L593.254,361.78L596.248,364.223L598.481,366.159L600.256,367.764L602.18,369.577L603.221,370.608L607.621,375.213L611.759,380.054L611.767,380.063L617.938,388.452L623.325,397.364L623.328,397.369L627.594,406.061L631.114,415.081L631.116,415.086L633.987,424.864L635.981,434.858L635.982,434.862L637.098,445.219L637.272,455.633L637.272,455.638L636.807,463.201L635.844,470.717L634.388,478.153L634.387,478.158L631.671,487.953L628.1,497.47L628.099,497.475L624.267,505.57L619.817,513.343L614.775,520.746L614.769,520.754L609.536,527.315L603.838,533.477L597.706,539.206L597.697,539.214L590.914,544.667L583.739,549.591L583.727,549.599L578.3,552.824L572.704,555.746L568.899,557.601L561.853,560.42L556.266,562.285L551.943,563.521L547.738,564.57L543.199,565.507L539.327,566.151L536.386,566.555L534.067,566.822L532.23,567.001L530.72,567.128L529.426,567.222L528.116,567.305L526.556,567.385L525.127,567.442L523.95,567.477L522.97,567.5L522.051,567.515L520.961,567.526L520.234,567.528L516.187,567.528L515.896,567.532L515.303,567.541L514.498,567.552L513.905,567.559L513.275,567.564L512.586,567.568L511.818,567.569L510.965,567.567L510.045,567.559L509.064,567.546L507.998,567.524L506.853,567.493L505.646,567.45L504.359,567.394L502.991,567.323L501.71,567.243L500.821,567.181L500.054,567.123L499.276,567.06L498.473,566.991L497.657,566.915L496.817,566.833L495.951,566.742L495.088,566.646L494.189,566.54L493.277,566.427L492.351,566.305L491.391,566.173L490.434,566.033L489.462,565.884L488.455,565.722L487.44,565.551L486.401,565.368L485.544,565.209L484.385,564.989L483.415,564.804L482.451,564.619L481.496,564.434L480.545,564.25L479.598,564.065L478.655,563.88L477.699,563.691L475.872,563.329L474.041,562.962L472.232,562.598L470.446,562.237L468.68,561.877L466.927,561.519L463.528,560.823L460.181,560.136L458.549,559.802L456.895,559.464L455.512,559.181L454.096,558.89L452.682,558.598L451.272,558.307L449.865,558.015L448.461,557.723L447.059,557.43L445.646,557.134L442.875,556.552L440.101,555.966L437.337,555.38L434.586,554.793L431.848,554.208L429.121,553.623L426.405,553.04L423.696,552.456L418.336,551.3L413.009,550.149L407.717,549.008L405.098,548.444L402.486,547.882L399.885,547.325L399.234,547.186L398.878,547.158L398.416,547.122L397.951,547.087L397.492,547.052L397.027,547.018L396.56,546.985L396.096,546.952L395.629,546.919L395.162,546.888L394.693,546.856L394.224,546.826L393.754,546.795L393.279,546.765L392.808,546.736L392.37,546.71L391.384,546.652L390.429,546.598L389.469,546.546L388.505,546.496L387.538,546.448L386.567,546.403L385.588,546.359L384.607,546.317L383.622,546.277L382.63,546.238L381.636,546.202L380.637,546.168L379.632,546.135L378.622,546.104L377.608,546.075L376.589,546.048L375.563,546.022L374.533,545.998L373.5,545.976L372.462,545.956L371.417,545.937L370.366,545.919L369.312,545.904L368.252,545.89L367.187,545.877L366.116,545.866L365.04,545.856L363.96,545.848L362.872,545.841L361.78,545.836L360.683,545.832L359.58,545.829L358.472,545.828L357.359,545.828L356.238,545.829L355.113,545.831L353.921,545.835L352.499,545.839L351.022,545.842L349.552,545.843L348.089,545.843L346.631,545.841L345.179,545.838L343.736,545.834L342.3,545.829L340.869,545.823L339.43,545.816L336.623,545.8L333.823,545.781L331.046,545.761L325.594,545.718L322.898,545.697L320.235,545.677L317.599,545.658L314.974,545.641L313.693,545.634L312.408,545.628L311.127,545.622L309.853,545.617L308.587,545.614L307.328,545.611L306.077,545.609L304.83,545.609L303.591,545.61L302.36,545.611L301.136,545.615L299.918,545.62L298.707,545.626L297.503,545.634L296.306,545.643L295.118,545.654L293.934,545.666L292.758,545.681L291.59,545.697L290.429,545.714L289.275,545.734L288.127,545.756L286.986,545.779L285.852,545.805L284.726,545.832L283.608,545.862L282.495,545.894L281.358,545.929L280.839,545.946L280.292,545.964L279.746,545.983L279.199,546.002L278.658,546.022L278.117,546.043L277.578,546.064L277.039,546.086L276.503,546.108L275.97,546.131L275.437,546.154L274.909,546.178L274.381,546.203L273.851,546.229L273.325,546.254L272.803,546.281L272.339,546.305L271.873,546.33L271.403,546.355L270.966,546.38L269.987,546.436L269.04,546.492L268.085,546.552L267.124,546.614L266.159,546.678L265.187,546.745L264.211,546.814L263.23,546.886L262.242,546.961L261.25,547.037L260.251,547.116L259.247,547.198L258.236,547.281L257.221,547.367L256.202,547.456L255.176,547.546L254.144,547.639L253.108,547.734L252.065,547.831L251.016,547.93L249.963,548.031L248.905,548.134L247.839,548.239L246.768,548.346L245.693,548.455L244.612,548.566L243.525,548.679L242.433,548.793L241.335,548.91L240.232,549.028L239.123,549.147L238.008,549.268L236.888,549.391L235.762,549.516L234.63,549.641L233.494,549.769L232.353,549.897L231.219,550.026L228.888,550.291L226.553,550.56L224.197,550.832L221.822,551.108L216.988,551.672L214.545,551.957L212.076,552.245L209.585,552.533L207.071,552.823L204.534,553.113L202.067,553.393L201.137,553.498L200.295,553.596L199.453,553.694L198.612,553.795L197.773,553.897L196.933,554L196.094,554.105L195.256,554.211L194.418,554.319L193.582,554.428L192.745,554.539L191.907,554.652L191.071,554.766L190.236,554.882L189.401,554.999L188.566,555.117L187.73,555.238L186.894,555.359L186.061,555.483L185.227,555.607L184.394,555.733L183.56,555.861L182.726,555.991L181.893,556.122L181.06,556.254L180.226,556.389L179.394,556.524L178.561,556.661L177.728,556.8L176.894,556.94L176.061,557.082L175.228,557.226L174.393,557.371L173.562,557.517L172.729,557.666L171.893,557.816L171.06,557.967L170.227,558.12L169.391,558.275L168.557,558.431L167.724,558.588L166.888,558.748L166.052,558.909L165.217,559.071L164.382,559.235L163.543,559.402L162.706,559.569L161.87,559.738L161.034,559.908L160.196,560.081L159.355,560.255L158.516,560.43L157.677,560.608L156.837,560.786L155.998,560.967L155.155,561.149L154.312,561.333L153.589,561.492L148.897,564.154L142.663,567.227L135.763,570.109L128.197,572.685L120.168,574.796L111.486,576.414L102.362,577.365L93.032,577.599L83.585,577.049L74.317,575.752L65.293,573.73L56.589,571.041L48.525,567.834L41.148,564.27L34.437,560.422L28.453,556.464L23.038,552.39L18.232,548.327L14.024,544.374L10.317,540.543L7.1,536.908L4.292,533.469L1.783,530.152L-0.92,526.31L-4.044,521.395L-6.874,516.367L-9.11,511.929L-10.899,507.999L-12.333,504.538L-13.495,501.48L-14.451,498.751L-15.243,496.311L-15.901,494.136L-16.452,492.188L-16.922,490.421L-17.322,488.824L-17.662,487.386L-17.955,486.082L-18.21,484.889L-18.437,483.78L-18.478,483.621L-18.706,482.715L-18.922,481.83L-19.124,480.978L-19.315,480.154L-19.493,479.363L-19.66,478.604L-19.815,477.88L-19.947,477.25L-20.143,476.305L-20.321,475.439L-20.496,474.581L-20.668,473.734L-20.836,472.895L-21.002,472.065L-21.165,471.245L-21.331,470.41L-21.638,468.846L-21.941,467.289L-22.234,465.77L-22.521,464.281L-23.065,461.444L-23.328,460.07L-23.584,458.741L-23.833,457.45L-24.076,456.197L-24.314,454.984L-24.564,453.716L-25.03,451.366L-25.51,448.925L-25.989,446.48L-26.466,444.031L-26.94,441.578L-27.412,439.12L-27.878,436.677L-28.116,435.428L-28.349,434.194L-28.582,432.96L-28.814,431.725L-29.045,430.489L-29.276,429.252L-29.506,428.014L-29.735,426.775L-29.964,425.535L-30.192,424.294L-30.42,423.052L-30.646,421.809L-30.872,420.565L-31.097,419.321L-31.321,418.075L-31.545,416.828L-31.768,415.58L-31.99,414.332L-32.211,413.082L-32.431,411.832L-32.651,410.58L-32.87,409.327L-33.087,408.074L-33.305,406.82L-33.521,405.564L-33.736,404.308L-33.95,403.051L-34.164,401.792L-34.377,400.533L-34.588,399.273L-34.799,398.012L-35.009,396.75L-35.218,395.487L-35.426,394.224L-35.633,392.959L-35.839,391.693L-36.044,390.427L-36.248,389.159L-36.451,387.89L-36.653,386.622L-36.854,385.351L-37.054,384.08L-37.252,382.808L-37.45,381.535L-37.647,380.261L-37.843,378.986L-38.037,377.71L-38.23,376.434L-38.423,375.156L-38.607,373.922L-38.855,372.259L-39.099,370.636L-39.344,369.004L-39.589,367.375L-40.09,364.067L-40.594,360.745L-41.618,354.013L-42.135,350.61L-42.656,347.179L-43.176,343.734L-43.439,341.985L-43.701,340.239L-43.962,338.486L-44.224,336.727L-44.486,334.961L-44.747,333.188L-45.008,331.41L-45.268,329.624L-45.528,327.831L-45.787,326.033L-46.045,324.227L-46.303,322.415L-46.559,320.596L-46.814,318.771L-47.068,316.938L-47.32,315.1L-47.571,313.255L-47.82,311.402L-48.068,309.544L-48.313,307.679L-48.556,305.807L-48.798,303.928L-49.037,302.043L-49.27,300.177L-49.391,299.204L-49.507,298.254L-49.623,297.302L-49.739,296.349L-49.853,295.394L-49.967,294.437L-50.08,293.478L-50.193,292.519L-50.304,291.557L-50.415,290.594L-50.525,289.629L-50.635,288.662L-50.743,287.694L-50.851,286.724L-50.957,285.752L-51.063,284.779L-51.168,283.804L-51.272,282.827L-51.375,281.849L-51.477,280.869L-51.578,279.886L-51.678,278.903L-51.777,277.918L-51.876,276.932L-51.973,275.943L-52.069,274.953L-52.163,273.961L-52.257,272.968L-52.35,271.973L-52.441,270.976L-52.532,269.978L-52.621,268.977L-52.709,267.976L-52.796,266.972L-52.881,265.967L-52.965,264.96L-53.049,263.952L-53.13,262.942L-53.211,261.929L-53.29,260.916L-53.368,259.901L-53.444,258.884L-53.519,257.865L-53.593,256.836L-53.698,255.355L-53.8,253.867L-53.888,252.554L-54.567,251.914L-55.462,251.055L-56.349,250.186L-57.24,249.295L-58.126,248.392L-59.007,247.476L-59.887,246.542L-60.76,245.595L-61.632,244.631L-62.493,243.658L-63.355,242.664L-64.213,241.652L-65.056,240.637L-65.898,239.601L-66.734,238.548L-67.559,237.487L-68.378,236.41L-69.187,235.321L-69.993,234.213L-70.788,233.093L-71.567,231.969L-72.343,230.822L-73.108,229.666L-73.861,228.499L-74.604,227.317L-75.334,226.129L-76.054,224.926L-76.762,223.712L-77.459,222.486L-78.142,221.252L-78.809,220.013L-79.466,218.76L-80.109,217.499L-80.737,216.232L-81.354,214.951L-81.954,213.667L-82.54,212.376L-83.222,210.827L-84.083,208.782L-85.017,206.425L-85.914,204.011L-86.773,201.535L-87.589,198.999L-88.358,196.413L-89.078,193.767L-89.744,191.074L-90.352,188.337L-90.902,185.552L-91.389,182.728L-91.809,179.87L-92.162,176.981L-92.445,174.065L-92.656,171.13L-92.794,168.18L-92.858,165.22L-92.847,162.255L-92.762,159.294L-92.602,156.339L-92.368,153.397L-92.062,150.476L-91.685,147.577L-91.24,144.706L-90.728,141.872L-90.152,139.075L-89.515,136.322L-88.821,133.615L-88.072,130.959L-87.273,128.36L-87.061,127.722L-90.022,122.855L-94.683,113.31L-98.443,103.375L-101.27,93.136L-103.141,82.68L-104.039,72.096L-103.956,61.474L-102.894,50.905L-100.861,40.479L-97.875,30.286L-93.961,20.411L-89.152,10.939L-83.49,1.952L-77.023,-6.475L-69.806,-14.269L-69.119,-14.945L-67.786,-16.218L-66.452,-17.453L-65.115,-18.655L-63.773,-19.824L-62.433,-20.958L-61.094,-22.058L-59.757,-23.125L-58.423,-24.16L-57.089,-25.165L-55.762,-26.136L-54.442,-27.075L-53.124,-27.987L-51.816,-28.866L-50.521,-29.713L-49.23,-30.534L-47.944,-31.329L-46.671,-32.095L-45.409,-32.834L-44.157,-33.546L-42.916,-34.234L-41.686,-34.896L-40.468,-35.535L-39.267,-36.148L-38.073,-36.741L-36.888,-37.314L-35.723,-37.862L-34.568,-38.391L-33.426,-38.9L-32.296,-39.389L-31.18,-39.86L-30.081,-40.311L-28.996,-40.745L-27.919,-41.163L-26.852,-41.567L-25.807,-41.951L-24.774,-42.321L-23.751,-42.677L-22.741,-43.019L-21.748,-43.346L-20.768,-43.659L-19.581,-44.029L-17.904,-44.529L-16.056,-45.05L-14.254,-45.528L-12.501,-45.968L-10.796,-46.37L-9.136,-46.738L-7.521,-47.075L-5.95,-47.382L-4.42,-47.662L-2.931,-47.917L-1.48,-48.149L-0.064,-48.359L1.313,-48.549L2.651,-48.72L3.958,-48.874L5.234,-49.012L6.477,-49.135L7.689,-49.244L8.873,-49.341L10.024,-49.425L11.149,-49.498L12.251,-49.561L13.326,-49.614L14.375,-49.659L15.4,-49.695L16.401,-49.723L17.381,-49.745L18.339,-49.759L19.276,-49.768L20.192,-49.77L21.09,-49.768L21.968,-49.76L22.826,-49.748L23.669,-49.731L24.494,-49.711L25.301,-49.687L26.091,-49.659L26.866,-49.629L27.625,-49.595L28.37,-49.559L29.098,-49.52L29.812,-49.479L30.514,-49.436L31.201,-49.391L31.875,-49.344L32.536,-49.296L33.183,-49.246L33.817,-49.195L34.439,-49.143L35.049,-49.089L35.734,-49.027L36.801,-48.926L37.915,-48.813L38.984,-48.699L40.009,-48.585L40.988,-48.47L41.926,-48.357L42.819,-48.245L43.668,-48.135L44.473,-48.028L45.235,-47.925L45.95,-47.826L46.665,-47.725L47.785,-47.564L48.759,-47.421L49.199,-47.356L49.307,-47.345L49.979,-47.272L50.65,-47.198L51.319,-47.123L51.986,-47.047L52.651,-46.97L53.316,-46.891L53.98,-46.812L54.642,-46.731L55.302,-46.649L55.961,-46.566L56.618,-46.482L57.275,-46.396L57.93,-46.31L58.582,-46.223L59.235,-46.134L59.886,-46.045L60.534,-45.954L61.182,-45.863L61.828,-45.77L62.473,-45.677L63.116,-45.582L63.758,-45.487L64.398,-45.39L65.037,-45.293L65.675,-45.194L66.312,-45.095L66.946,-44.995L67.579,-44.894L68.211,-44.792L68.842,-44.689L69.519,-44.577L70.724,-44.375L71.972,-44.162L73.214,-43.945L74.451,-43.726L75.682,-43.503L76.907,-43.277L78.126,-43.048L79.34,-42.817L80.548,-42.583L81.75,-42.346L82.947,-42.106L84.138,-41.865L85.323,-41.62L86.503,-41.374L87.677,-41.125L88.845,-40.874L90.007,-40.621L91.164,-40.366L92.316,-40.11L93.462,-39.851L94.602,-39.59L95.736,-39.328L96.866,-39.065L97.989,-38.8L99.106,-38.533L100.219,-38.265L101.326,-37.996L102.427,-37.726L103.524,-37.454L104.614,-37.181L105.699,-36.908L106.779,-36.633L107.853,-36.357L108.922,-36.081L109.985,-35.804L111.044,-35.526L112.096,-35.248L113.144,-34.969L114.186,-34.689L115.222,-34.41L115.329,-34.381L115.373,-34.391L116.301,-34.606L117.254,-34.819L118.048,-34.991L119.266,-35.25L120.306,-35.47L121.347,-35.689L122.389,-35.908L123.431,-36.126L124.474,-36.343L125.517,-36.56L126.561,-36.775L127.605,-36.99L128.651,-37.204L129.697,-37.418L130.743,-37.63L131.79,-37.842L132.838,-38.052L133.886,-38.262L134.935,-38.472L135.985,-38.68L137.035,-38.887L138.085,-39.094L139.137,-39.3L140.189,-39.505L141.242,-39.709L142.296,-39.912L143.35,-40.115L144.404,-40.316L145.46,-40.517L146.515,-40.717L147.573,-40.916L148.63,-41.114L149.688,-41.311L150.747,-41.507L151.807,-41.702L152.867,-41.897L153.928,-42.09L154.99,-42.283L156.053,-42.474L157.115,-42.665L158.179,-42.855L159.244,-43.043L160.31,-43.231L161.376,-43.418L162.443,-43.604L163.51,-43.789L164.579,-43.973L165.648,-44.156L166.718,-44.338L167.789,-44.519L168.86,-44.699L169.932,-44.878L171.005,-45.056L172.079,-45.233L173.154,-45.409L174.229,-45.584L175.305,-45.758L176.382,-45.93L177.46,-46.102L178.538,-46.273L179.618,-46.443L180.698,-46.611L181.779,-46.779L182.861,-46.946L183.944,-47.111L185.027,-47.275L186.123,-47.44L187.379,-47.628L188.646,-47.815L189.911,-48L191.177,-48.184L192.442,-48.365L193.706,-48.544L194.969,-48.721L196.232,-48.896L197.494,-49.069L198.755,-49.241L200.016,-49.41L201.276,-49.577L202.535,-49.743L203.794,-49.906L205.053,-50.068L206.31,-50.228L207.567,-50.385L208.823,-50.541L210.078,-50.695L211.333,-50.847L212.587,-50.997L213.841,-51.146L215.094,-51.292L216.346,-51.437L217.598,-51.58L218.849,-51.721L220.099,-51.86L221.349,-51.997L222.598,-52.132L223.847,-52.266L225.094,-52.398L226.342,-52.528L227.588,-52.656L228.835,-52.783L230.08,-52.907L231.325,-53.03L232.569,-53.152L233.813,-53.271L235.055,-53.389L236.298,-53.505L237.54,-53.619L238.781,-53.732L240.022,-53.843L241.262,-53.952L242.501,-54.059L243.74,-54.165L244.978,-54.269L246.216,-54.372L247.453,-54.473L248.689,-54.572L249.925,-54.67L251.161,-54.766L252.395,-54.86L253.63,-54.953L254.863,-55.044L256.096,-55.134L257.329,-55.221L258.561,-55.308L259.793,-55.393L261.024,-55.476L262.254,-55.558L263.484,-55.638L264.713,-55.717L265.942,-55.794L267.17,-55.869L268.398,-55.943L269.625,-56.016L270.852,-56.087L272.078,-56.157L273.304,-56.225L274.529,-56.292L275.753,-56.357L276.978,-56.421L278.201,-56.483L279.424,-56.544L280.647,-56.604L281.869,-56.662L283.091,-56.719L284.312,-56.774L285.533,-56.828L286.753,-56.88L287.973,-56.932L289.192,-56.981L290.411,-57.03L291.63,-57.077L292.848,-57.123L294.065,-57.167L295.283,-57.21L296.499,-57.252L297.716,-57.293L298.931,-57.332L300.147,-57.37L301.362,-57.407L302.576,-57.442L303.791,-57.476L305.004,-57.509L306.218,-57.541L307.431,-57.571L308.644,-57.601L309.856,-57.629L311.068,-57.655L312.279,-57.681L313.49,-57.706L314.701,-57.729L315.911,-57.751L317.122,-57.772L318.331,-57.792L319.541,-57.81L320.75,-57.828L321.959,-57.844L323.167,-57.859L324.375,-57.873L325.583,-57.886L326.79,-57.898L327.998,-57.909L329.205,-57.919L330.411,-57.928L331.617,-57.935L332.823,-57.942L334.029,-57.947L335.234,-57.952L336.44,-57.955L337.645,-57.958L338.849,-57.959L340.054,-57.96L341.258,-57.959L342.462,-57.958L343.586,-57.955L344.503,-57.954L345.35,-57.954L346.209,-57.956L347.078,-57.96L347.96,-57.965L348.852,-57.971L349.756,-57.979L350.671,-57.988L351.597,-57.998L352.534,-58.01L353.482,-58.022L354.441,-58.036L355.411,-58.051L356.374,-58.067L358.391,-58.101L360.428,-58.138L362.507,-58.178L366.793,-58.261L368.997,-58.303L371.243,-58.344L373.508,-58.384L374.685,-58.403L375.854,-58.421L377.033,-58.438L378.223,-58.455L379.423,-58.47L380.633,-58.484L381.853,-58.496L383.083,-58.507L384.323,-58.517L385.573,-58.525L386.834,-58.53L388.104,-58.534L389.385,-58.535L390.675,-58.534ZM582.315,230.781L582.312,230.741L582.31,230.714L582.315,230.781Z" style="fill:white;"/>
    </g>
</svg>
