<?xml version="1.0" encoding="UTF-8" standalone="no"?>
<!DOCTYPE svg PUBLIC "-//W3C//DTD SVG 1.1//EN" "http://www.w3.org/Graphics/SVG/1.1/DTD/svg11.dtd">
<svg width="100%" height="100%" viewBox="0 0 20 32" version="1.1" xmlns="http://www.w3.org/2000/svg" xmlns:xlink="http://www.w3.org/1999/xlink" xml:space="preserve" xmlns:serif="http://www.serif.com/" style="fill-rule:evenodd;clip-rule:evenodd;stroke-linejoin:round;stroke-miterlimit:2;">
    <clipPath id="_clip1">
        <path d="M16.698,3.604C13.005,-0.089 7.023,-0.089 3.329,3.604C-0.364,7.295 -0.364,13.283 3.329,16.973C3.329,16.973 10.009,23.525 10.009,31.089C10.009,23.525 16.697,16.973 16.697,16.973C20.392,13.283 20.392,7.295 16.698,3.604ZM10.01,14.076C7.924,14.076 6.232,12.384 6.232,10.294C6.232,8.203 7.924,6.512 10.01,6.512C12.104,6.512 13.796,8.203 13.796,10.294C13.796,12.384 12.104,14.076 10.01,14.076Z" clip-rule="nonzero"/>
    </clipPath>
    <g clip-path="url(#_clip1)">
        <path d="M0.507,-6.439L0.797,-6.416L1.085,-6.379L1.091,-6.378L1.336,-6.335L1.579,-6.282L1.82,-6.219L1.826,-6.217L2.109,-6.13L2.386,-6.028L2.559,-5.955L2.732,-6.142L2.946,-6.362L3.171,-6.571L3.181,-6.579L3.37,-6.739L3.565,-6.89L3.766,-7.034L3.776,-7.04L4.023,-7.2L4.277,-7.348L4.539,-7.482L4.549,-7.487L4.78,-7.593L5.016,-7.69L5.256,-7.776L5.499,-7.852L5.509,-7.855L5.779,-7.926L6.052,-7.985L6.327,-8.031L6.605,-8.064L6.615,-8.065L6.866,-8.083L7.118,-8.092L7.37,-8.089L7.584,-8.083L7.992,-8.044L8.41,-7.977L8.832,-7.879L9.251,-7.751L9.663,-7.593L10.061,-7.407L10.44,-7.197L10.796,-6.967L11.126,-6.721L11.427,-6.465L11.699,-6.203L11.944,-5.939L12.161,-5.677L12.353,-5.42L12.521,-5.169L12.669,-4.927L12.798,-4.695L12.91,-4.472L13.007,-4.26L13.091,-4.058L13.179,-3.828L13.283,-3.518L13.372,-3.199L13.398,-3.084L13.45,-3.11L13.733,-3.234L14.022,-3.343L14.317,-3.437L14.615,-3.515L14.918,-3.579L15.223,-3.626L15.531,-3.658L15.839,-3.674L16.148,-3.674L16.457,-3.658L16.764,-3.626L17.069,-3.579L17.372,-3.515L17.67,-3.437L17.965,-3.343L18.254,-3.234L18.537,-3.11L18.813,-2.972L19.082,-2.82L19.343,-2.654L19.595,-2.475L19.837,-2.283L20.069,-2.079L20.29,-1.864L20.5,-1.637L20.698,-1.4L20.884,-1.152L21.01,-0.964L21.367,-0.855L21.733,-0.741L22.099,-0.624L22.466,-0.505L22.833,-0.384L23.2,-0.26L23.567,-0.133L23.935,-0.004L24.302,0.129L24.67,0.264L25.038,0.402L25.405,0.543L25.773,0.687L26.141,0.834L26.508,0.985L26.875,1.139L27.242,1.296L27.603,1.454L27.792,1.538L27.975,1.621L28.158,1.705L28.341,1.789L28.524,1.875L28.712,1.963L28.904,2.056L29.101,2.153L29.298,2.252L29.494,2.352L29.691,2.455L29.886,2.56L30.081,2.667L30.276,2.776L30.47,2.887L30.664,3L30.857,3.115L31.049,3.232L31.241,3.352L31.432,3.473L31.62,3.595L31.694,3.636L31.819,3.706L31.963,3.79L32.133,3.893L32.332,4.019L32.539,4.16L32.692,4.271L32.837,4.381L32.997,4.509L33.174,4.66L33.37,4.84L33.589,5.058L33.832,5.327L34.1,5.662L34.238,5.865L34.385,6.09L34.522,6.322L34.533,6.342L34.653,6.566L34.762,6.794L34.862,7.027L34.952,7.265L34.956,7.274L35.045,7.546L35.121,7.822L35.185,8.101L35.234,8.383L35.271,8.667L35.272,8.677L35.293,8.941L35.303,9.205L35.301,9.469L35.287,9.734L35.262,9.997L35.261,10.007L35.222,10.285L35.169,10.561L35.104,10.833L35.027,11.103L35.023,11.114L34.926,11.399L34.814,11.679L34.688,11.953L34.683,11.964L34.574,12.175L34.458,12.382L34.333,12.584L34.325,12.595L34.167,12.827L33.999,13.052L33.851,13.239L33.569,13.548L33.322,13.787L33.067,14.01L32.763,14.247L32.48,14.443L32.252,14.586L32.064,14.696L31.887,14.793L31.678,14.901L31.543,14.966L31.497,14.989L31.364,15.052L31.146,15.149L30.934,15.235L30.727,15.313L30.526,15.382L30.332,15.443L30.144,15.498L29.963,15.546L29.788,15.589L29.619,15.626L29.457,15.659L29.3,15.688L29.15,15.713L29.006,15.735L28.867,15.754L28.718,15.773L28.489,15.798L28.262,15.817L28.057,15.831L27.873,15.842L27.712,15.849L27.575,15.855L27.352,15.864L27.109,15.873L26.854,15.882L26.602,15.89L26.35,15.897L25.865,15.909L25.388,15.918L24.465,15.936L24.023,15.946L23.586,15.957L23.379,15.964L23.171,15.971L22.966,15.979L22.764,15.987L22.565,15.997L22.369,16.007L22.176,16.019L21.994,16.031L21.994,21.515L21.993,21.725L21.991,21.944L21.984,22.338L21.977,22.707L21.97,23.05L21.968,23.201L21.967,23.347L21.967,23.484L21.968,23.612L21.97,23.731L21.973,23.84L21.977,23.941L21.982,24.031L21.984,24.054L21.986,24.079L21.989,24.111L21.993,24.149L21.999,24.193L22.006,24.243L22.014,24.299L22.024,24.361L22.036,24.429L22.048,24.494L22.081,24.671L22.118,24.86L22.161,25.072L22.209,25.307L22.261,25.565L22.314,25.837L22.343,25.993L22.371,26.148L22.399,26.31L22.427,26.477L22.454,26.651L22.481,26.83L22.506,27.016L22.529,27.208L22.551,27.406L22.569,27.594L22.596,27.917L22.621,28.229L22.645,28.544L22.667,28.864L22.688,29.188L22.706,29.516L22.721,29.849L22.734,30.186L22.743,30.519L22.747,30.699L22.75,30.872L22.751,31.046L22.752,31.222L22.752,31.398L22.75,31.576L22.748,31.754L22.744,31.934L22.739,32.115L22.733,32.296L22.726,32.479L22.717,32.663L22.706,32.848L22.696,33.005L22.693,33.062L22.691,33.096L22.69,33.136L22.689,33.17L22.686,33.291L22.685,33.421L22.685,33.573L22.686,33.748L22.687,33.945L22.687,34.126L22.688,34.177L22.689,34.28L22.69,34.459L22.687,34.616L22.681,34.792L22.668,35.012L22.655,35.169L22.651,35.219L22.639,35.406L22.598,35.791L22.549,36.048L22.5,36.279L22.442,36.509L22.376,36.736L22.374,36.743L22.28,37.017L22.173,37.286L22.053,37.55L22.051,37.555L21.908,37.831L21.751,38.099L21.581,38.359L21.398,38.609L21.202,38.85L21.199,38.853L21.01,39.063L20.813,39.263L20.605,39.453L20.39,39.634L20.166,39.804L19.934,39.964L19.695,40.112L19.449,40.25L19.197,40.375L18.94,40.489L18.937,40.49L18.655,40.599L18.367,40.693L18.076,40.772L17.78,40.837L17.482,40.887L17.182,40.921L16.88,40.941L16.578,40.945L16.276,40.934L15.975,40.908L15.676,40.867L15.379,40.811L15.375,40.81L15.096,40.743L14.821,40.663L14.55,40.569L14.284,40.463L14.023,40.344L13.768,40.213L13.519,40.07L13.278,39.915L13.045,39.748L13.04,39.745L12.797,39.553L12.564,39.348L12.341,39.132L12.241,39.029L12.066,38.835L11.906,38.643L11.732,38.416L11.571,38.184L11.567,38.18L11.297,37.854L11.131,37.631L11.004,37.449L10.847,37.207L10.704,36.965L10.585,36.75L10.483,36.553L10.393,36.371L10.312,36.199L10.284,36.139L10.277,36.21L10.245,36.442L10.207,36.679L10.162,36.919L10.11,37.163L10.05,37.409L9.983,37.657L9.907,37.906L9.823,38.157L9.73,38.408L9.628,38.658L9.518,38.907L9.4,39.154L9.273,39.398L9.139,39.639L8.996,39.875L8.847,40.106L8.691,40.332L8.529,40.551L8.362,40.764L8.189,40.97L8.065,41.11L7.87,41.451L7.705,41.705L7.556,41.916L7.393,42.128L7.216,42.339L7.025,42.548L6.819,42.754L6.6,42.954L6.368,43.147L6.123,43.331L5.869,43.504L5.604,43.666L5.333,43.815L5.056,43.95L4.775,44.071L4.493,44.176L4.211,44.267L3.932,44.344L3.78,44.379L3.488,44.437L3.194,44.481L3.178,44.483L2.908,44.511L2.636,44.526L2.365,44.529L2.093,44.52L2.079,44.519L1.827,44.499L1.575,44.469L1.325,44.428L1.077,44.376L0.831,44.314L0.819,44.311L0.556,44.232L0.297,44.142L0.042,44.039L-0.208,43.925L-0.452,43.8L-0.463,43.794L-0.696,43.661L-0.922,43.518L-1.142,43.364L-1.355,43.201L-1.56,43.029L-1.57,43.021L-1.79,42.818L-1.999,42.604L-2.198,42.38L-2.385,42.146L-2.393,42.136L-2.541,41.934L-2.68,41.725L-2.81,41.511L-2.931,41.292L-2.938,41.279L-3.058,41.037L-3.167,40.79L-3.266,40.537L-3.271,40.523L-3.341,40.318L-3.404,40.111L-3.459,39.901L-3.525,39.631L-3.6,39.145L-3.634,38.738L-3.641,38.393L-3.634,38.098L-3.612,37.791L-3.566,37.413L-3.5,37.048L-3.424,36.725L-3.338,36.421L-3.235,36.112L-3.194,36.005L-3.195,35.967L-3.216,35.374L-3.235,34.779L-3.251,34.182L-3.265,33.585L-3.277,32.987L-3.287,32.388L-3.294,31.788L-3.299,31.188L-3.301,30.586L-3.301,29.984L-3.299,29.691L-3.318,29.611L-3.49,28.868L-3.658,28.139L-3.83,27.404L-3.893,27.132L-3.957,26.841L-4.02,26.548L-4.081,26.254L-4.139,25.959L-4.189,25.696L-4.388,25.62L-4.671,25.494L-4.946,25.355L-5.214,25.201L-5.474,25.034L-5.725,24.853L-5.966,24.66L-6.197,24.455L-6.417,24.238L-6.626,24.01L-6.822,23.772L-7.006,23.524L-7.177,23.266L-7.335,23.001L-7.479,22.727L-7.608,22.447L-7.723,22.16L-7.823,21.867L-7.908,21.57L-7.977,21.269L-8.031,20.965L-8.068,20.658L-8.091,20.35L-8.097,20.041L-8.087,19.732L-8.062,19.424L-8.02,19.118L-7.991,18.938L-7.934,18.652L-7.866,18.366L-7.787,18.083L-7.698,17.805L-7.599,17.531L-7.49,17.263L-7.374,17.003L-7.249,16.75L-7.118,16.507L-6.982,16.274L-6.841,16.05L-6.697,15.837L-6.55,15.635L-6.402,15.443L-6.253,15.262L-6.105,15.091L-5.958,14.931L-5.813,14.78L-5.67,14.638L-5.53,14.505L-5.394,14.381L-5.262,14.265L-5.133,14.156L-5.009,14.054L-4.889,13.959L-4.785,13.879L-4.786,13.873L-4.817,13.622L-4.847,13.382L-4.875,13.142L-4.902,12.903L-4.928,12.665L-4.952,12.429L-4.976,12.193L-5,11.953L-5.043,11.491L-5.083,11.028L-5.121,10.568L-5.156,10.113L-5.19,9.662L-5.222,9.213L-5.282,8.337L-5.34,7.473L-5.369,7.049L-5.398,6.628L-5.489,5.35L-5.535,4.718L-5.582,4.087L-5.63,3.461L-5.68,2.838L-5.731,2.218L-5.787,1.577L-5.804,1.383L-5.82,1.165L-5.833,0.947L-5.843,0.73L-5.852,0.514L-5.857,0.328L-5.858,0.322L-5.888,-0.051L-5.894,-0.535L-5.873,-0.815L-5.853,-1.03L-5.825,-1.245L-5.789,-1.458L-5.786,-1.476L-5.734,-1.729L-5.67,-1.98L-5.596,-2.228L-5.591,-2.244L-5.493,-2.523L-5.382,-2.796L-5.258,-3.063L-5.25,-3.079L-5.141,-3.289L-5.025,-3.493L-4.9,-3.694L-4.763,-3.904L-4.609,-4.103L-4.479,-4.265L-4.343,-4.424L-4.201,-4.577L-4.196,-4.582L-3.992,-4.786L-3.778,-4.98L-3.555,-5.163L-3.55,-5.167L-3.355,-5.313L-3.155,-5.451L-2.949,-5.581L-2.739,-5.702L-2.733,-5.705L-2.503,-5.825L-2.268,-5.935L-2.028,-6.035L-1.785,-6.124L-1.779,-6.126L-1.531,-6.205L-1.28,-6.272L-1.026,-6.329L-0.77,-6.375L-0.764,-6.376L-0.521,-6.409L-0.278,-6.432L-0.034,-6.446L0.211,-6.449L0.217,-6.449L0.507,-6.439ZM15.14,40.124L15.159,40.126L15.133,40.122L15.14,40.124ZM-5.779,0.844L-5.777,0.854L-5.781,0.834L-5.779,0.844Z" style="fill:rgb(250,255,255);"/>
    </g>
</svg>
