<?xml version="1.0" encoding="UTF-8" standalone="no"?>
<!DOCTYPE svg PUBLIC "-//W3C//DTD SVG 1.1//EN" "http://www.w3.org/Graphics/SVG/1.1/DTD/svg11.dtd">
<svg width="100%" height="100%" viewBox="0 0 435 435" version="1.1" xmlns="http://www.w3.org/2000/svg" xmlns:xlink="http://www.w3.org/1999/xlink" xml:space="preserve" xmlns:serif="http://www.serif.com/" style="fill-rule:evenodd;clip-rule:evenodd;stroke-linejoin:round;stroke-miterlimit:2;">
    <clipPath id="_clip1">
        <path d="M168.726,265.83C169.135,270.501 165.681,274.617 161.009,275.026C161.009,275.026 67.25,283.198 66.552,283.198C54.243,283.198 43.73,273.753 42.637,261.265L24.545,54.477C23.392,41.279 33.189,29.603 46.385,28.45L213.55,13.826C219.916,13.267 226.151,15.235 231.075,19.368C236,23.5 239.019,29.287 239.578,35.664L247.641,127.828C248.051,132.499 244.596,136.615 239.925,137.024C235.263,137.432 231.139,133.978 230.729,129.308L222.666,37.143C222.503,35.284 221.614,33.588 220.164,32.37C218.713,31.153 216.887,30.573 215.032,30.736L47.865,45.362C43.994,45.7 41.119,49.126 41.457,52.998L59.549,259.786C59.712,261.645 60.601,263.34 62.052,264.559C63.505,265.778 65.331,266.36 67.184,266.195L159.53,258.116C164.206,257.703 168.317,261.161 168.726,265.83ZM179.035,107.187C171.618,84.93 147.474,72.861 125.219,80.277C102.962,87.698 90.893,111.84 98.312,134.094C99.793,138.541 104.599,140.944 109.049,139.463C113.496,137.98 115.9,133.173 114.416,128.726C109.957,115.352 117.213,100.843 130.587,96.383C143.96,91.926 158.471,99.18 162.929,112.555C167.388,125.932 160.133,140.442 146.761,144.9C133.696,149.252 126.607,163.424 130.959,176.491C132.144,180.049 135.456,182.3 139.011,182.3C139.899,182.3 140.804,182.16 141.694,181.863C146.142,180.382 148.547,175.576 147.065,171.128C145.67,166.941 147.941,162.4 152.128,161.005C174.383,153.585 186.453,129.442 179.035,107.187ZM141.292,199.824C136.622,200.232 133.166,204.347 133.574,209.018L133.777,211.34C134.162,215.759 137.869,219.09 142.223,219.09C142.47,219.09 142.719,219.08 142.97,219.057C147.641,218.65 151.096,214.534 150.689,209.864L150.486,207.542C150.078,202.872 145.961,199.417 141.292,199.824ZM410.958,195.094L392.866,401.884C391.772,414.374 381.256,423.818 368.948,423.818C368.25,423.818 367.546,423.788 366.838,423.726L199.674,409.101C186.478,407.944 176.681,396.269 177.834,383.072L195.927,176.284C196.485,169.908 199.504,164.121 204.429,159.989C209.354,155.856 215.568,153.885 221.954,154.445L221.953,154.445L389.117,169.07C402.312,170.224 412.109,181.899 410.958,195.094ZM387.635,185.981L220.472,171.356C220.472,171.356 220.062,171.33 219.859,171.33C218.217,171.33 216.632,171.909 215.34,172.992C213.889,174.211 213.001,175.904 212.838,177.763L194.746,384.551C194.407,388.424 197.282,391.85 201.154,392.19L368.316,406.814C372.185,407.16 375.614,404.278 375.955,400.404L394.047,193.617C394.384,189.746 391.509,186.321 387.635,185.981ZM296.292,280.73L293.97,280.527C289.308,280.113 285.185,283.576 284.777,288.245C284.368,292.916 287.824,297.032 292.495,297.439L294.817,297.642C295.068,297.663 295.317,297.675 295.565,297.675C299.919,297.675 303.625,294.343 304.011,289.924C304.418,285.253 300.963,281.137 296.292,280.73ZM363.908,295.163L363.908,295.166C363.019,305.326 355.991,313.505 346.806,316.364C347.781,319.416 348.149,322.664 347.86,325.958C347.29,332.469 344.231,338.357 339.246,342.538C334.264,346.718 327.932,348.71 321.424,348.139C318.132,347.852 314.998,346.926 312.163,345.438C310.696,348.284 308.658,350.839 306.127,352.963C301.678,356.696 296.187,358.692 290.47,358.692C289.755,358.692 289.036,358.661 288.314,358.597C278.15,357.708 269.97,350.679 267.114,341.489C257.948,344.419 247.499,341.751 240.941,333.936C236.759,328.952 234.769,322.622 235.338,316.113C235.627,312.819 236.551,309.685 238.04,306.85C235.196,305.383 232.641,303.347 230.517,300.815C226.332,295.827 224.33,289.528 224.878,283.072C224.88,283.05 224.882,283.027 224.884,283.005C225.449,276.522 228.518,270.639 233.525,266.439C236.057,264.315 238.928,262.752 241.984,261.801C241.01,258.752 240.643,255.505 240.932,252.213C241.502,245.703 244.559,239.815 249.543,235.634C249.572,235.609 249.602,235.584 249.631,235.561C254.602,231.428 260.896,229.466 267.369,230.031C270.661,230.319 273.794,231.244 276.628,232.732C278.097,229.888 280.133,227.333 282.664,225.208C287.654,221.022 293.962,219.02 300.412,219.568C300.434,219.57 300.458,219.572 300.48,219.574C310.642,220.464 318.82,227.492 321.677,236.678C330.841,233.749 341.291,236.418 347.849,244.231C354.405,252.048 355.219,262.8 350.743,271.318C359.295,275.724 364.796,284.999 363.908,295.163ZM340.232,285.622L333.36,285.02C329.94,284.72 327.037,282.39 326.004,279.116C324.973,275.842 326.015,272.269 328.644,270.062L333.926,265.63C337.071,262.992 337.483,258.287 334.845,255.143C332.206,252 327.502,251.587 324.358,254.225L319.076,258.658C316.448,260.864 312.748,261.27 309.701,259.685C306.655,258.1 304.864,254.836 305.163,251.417L305.764,244.548C306.121,240.471 303.105,236.863 299.034,236.487C299.022,236.486 299.009,236.485 298.996,236.484C297.039,236.312 295.109,236.926 293.576,238.212C292.044,239.497 291.106,241.287 290.934,243.248L290.332,250.121C290.032,253.541 287.701,256.443 284.428,257.474C281.153,258.507 277.581,257.465 275.373,254.835L270.94,249.553C269.674,248.042 267.88,247.116 265.888,246.942C263.897,246.764 261.966,247.369 260.456,248.636C260.44,248.65 260.424,248.663 260.408,248.676C258.926,249.941 258.015,251.719 257.842,253.691C257.667,255.683 258.269,257.612 259.536,259.121L263.969,264.405C266.176,267.036 266.581,270.735 264.996,273.78C263.41,276.825 260.162,278.613 256.727,278.317L249.858,277.717C247.895,277.549 245.967,278.16 244.435,279.445C242.913,280.722 241.977,282.496 241.798,284.444C241.796,284.458 241.795,284.471 241.794,284.485C241.621,286.449 242.235,288.374 243.521,289.905C244.806,291.437 246.596,292.376 248.56,292.548L255.428,293.149C258.848,293.448 261.751,295.778 262.784,299.053C263.816,302.327 262.774,305.902 260.143,308.108L254.859,312.54C253.35,313.807 252.422,315.602 252.248,317.594C252.073,319.586 252.676,321.515 253.943,323.025C256.583,326.17 261.286,326.581 264.431,323.944L269.713,319.511C271.275,318.2 273.216,317.525 275.172,317.525C276.508,317.525 277.852,317.84 279.089,318.484C282.134,320.068 283.924,323.331 283.626,326.752L283.025,333.626C282.668,337.715 285.703,341.332 289.79,341.69C291.761,341.861 293.68,341.249 295.213,339.962C296.745,338.677 297.683,336.889 297.855,334.926L298.458,328.052C298.758,324.632 301.088,321.729 304.362,320.697C307.636,319.665 311.211,320.707 313.416,323.336L317.849,328.619C319.117,330.129 320.911,331.056 322.903,331.232C324.894,331.406 326.823,330.804 328.335,329.538C329.847,328.27 330.775,326.475 330.948,324.483C331.122,322.491 330.521,320.561 329.253,319.05L324.821,313.769C322.613,311.139 322.207,307.439 323.792,304.393C325.377,301.346 328.642,299.556 332.062,299.855L338.934,300.457C343.024,300.822 346.638,297.779 346.996,293.689C347.353,289.596 344.319,285.979 340.232,285.622Z" clip-rule="nonzero"/>
    </clipPath>
    <g clip-path="url(#_clip1)">
        <path d="M268.464,-32.234L269.284,-32.229L270.114,-32.223L270.955,-32.214L271.806,-32.203L272.667,-32.19L273.538,-32.174L274.42,-32.156L275.312,-32.134L276.214,-32.109L277.127,-32.082L278.069,-32.05L278.945,-32.016L279.833,-31.979L280.71,-31.938L281.575,-31.893L282.43,-31.846L283.272,-31.797L284.104,-31.745L284.924,-31.69L285.732,-31.633L286.53,-31.575L287.316,-31.515L288.091,-31.453L288.854,-31.39L289.606,-31.326L290.347,-31.26L291.077,-31.194L291.795,-31.127L292.502,-31.06L293.197,-30.992L293.881,-30.924L294.554,-30.856L295.216,-30.787L295.867,-30.719L296.528,-30.649L297.745,-30.518L298.945,-30.386L300.1,-30.257L301.206,-30.133L303.304,-29.897L304.276,-29.789L305.209,-29.686L306.125,-29.587L306.53,-29.544L306.947,-29.5L307.352,-29.458L307.747,-29.418L308.13,-29.38L308.502,-29.344L308.863,-29.309L309.213,-29.276L309.552,-29.245L309.88,-29.216L310.197,-29.189L310.503,-29.164L310.798,-29.14L311.082,-29.118L311.355,-29.098L311.617,-29.08L311.868,-29.063L312.108,-29.048L312.337,-29.034L312.555,-29.022L312.763,-29.011L313.011,-28.999L313.396,-28.982L313.833,-28.963L314.274,-28.945L314.718,-28.928L315.165,-28.911L315.616,-28.895L316.07,-28.879L316.528,-28.864L316.988,-28.849L317.453,-28.835L317.92,-28.821L318.367,-28.809L319.345,-28.784L320.311,-28.761L321.29,-28.74L322.283,-28.721L323.29,-28.703L324.31,-28.687L325.344,-28.672L326.392,-28.658L327.453,-28.645L328.528,-28.633L329.617,-28.622L330.714,-28.612L332.973,-28.591L335.275,-28.571L337.617,-28.55L338.825,-28.538L340.038,-28.525L341.265,-28.51L342.506,-28.494L343.76,-28.477L345.029,-28.457L346.311,-28.436L347.622,-28.411L348.205,-28.399L348.801,-28.385L349.394,-28.369L349.984,-28.352L350.569,-28.333L351.151,-28.313L351.729,-28.292L352.304,-28.27L352.875,-28.246L353.442,-28.221L354.006,-28.195L354.565,-28.168L355.122,-28.14L355.674,-28.111L356.223,-28.081L356.768,-28.05L357.309,-28.018L357.885,-27.983L358.909,-27.918L359.959,-27.847L360.993,-27.773L362.013,-27.697L363.017,-27.619L364.008,-27.54L364.983,-27.458L365.943,-27.376L366.888,-27.292L367.819,-27.207L368.735,-27.122L369.636,-27.037L370.522,-26.951L371.394,-26.866L372.251,-26.781L373.093,-26.696L373.933,-26.611L375.526,-26.447L378.568,-26.132L380.006,-25.984L381.408,-25.842L382.058,-25.777L382.711,-25.712L383.349,-25.65L383.972,-25.59L384.581,-25.533L385.176,-25.478L385.756,-25.426L386.322,-25.376L386.874,-25.329L387.411,-25.285L387.933,-25.243L388.441,-25.205L388.936,-25.168L389.416,-25.135L389.881,-25.104L390.373,-25.074L390.555,-25.063L390.772,-25.05L390.985,-25.038L391.195,-25.027L391.401,-25.017L391.604,-25.007L391.803,-24.998L391.999,-24.989L392.191,-24.981L392.38,-24.973L392.565,-24.967L392.747,-24.96L392.925,-24.955L393.101,-24.949L393.272,-24.945L393.44,-24.941L393.605,-24.937L393.766,-24.934L393.925,-24.931L394.079,-24.929L394.23,-24.928L394.378,-24.927L394.522,-24.926L394.786,-24.926L403.434,-24.444L411.98,-23.029L420.323,-20.699L428.365,-17.481L436.012,-13.412L443.175,-8.54L449.768,-2.922L455.716,3.376L460.947,10.28L465.402,17.709L469.027,25.576L471.781,33.789L473.63,42.251L474.554,50.864L474.54,59.526L473.591,68.136L472.18,74.501L473.082,75.407L474.152,76.523L475.24,77.701L476.36,78.963L477.509,80.313L478.672,81.742L479.847,83.254L481.047,84.877L482.252,86.595L483.457,88.411L484.657,90.332L485.862,92.387L487.06,94.578L488.229,96.883L489.365,99.314L490.457,101.871L491.509,104.593L492.484,107.42L493.381,110.367L494.196,113.476L494.898,116.673L495.487,119.989L495.947,123.417L496.263,126.89L496.43,130.418L496.443,134.03L496.292,137.655L495.981,141.274L495.504,144.888L494.875,148.432L494.094,151.928L493.162,155.376L492.105,158.704L491.999,158.995L492.18,159.199L492.683,159.775L493.187,160.361L493.701,160.97L494.234,161.611L494.778,162.28L495.326,162.966L495.886,163.68L496.465,164.434L497.043,165.206L497.639,166.018L498.257,166.88L498.874,167.765L499.504,168.691L500.147,169.664L500.797,170.677L501.463,171.748L502.142,172.876L502.827,174.054L503.517,175.287L504.219,176.593L504.929,177.969L505.634,179.403L506.34,180.91L507.053,182.513L507.763,184.208L508.459,185.979L509.147,187.854L509.818,189.834L510.466,191.917L511.082,194.104L511.66,196.398L512.198,198.83L512.68,201.38L513.094,204.03L513.436,206.825L513.69,209.751L513.822,212.378L513.867,214.31L513.872,215.912L513.846,217.528L513.786,219.156L513.693,220.826L513.563,222.503L513.399,224.189L513.19,225.943L512.947,227.67L512.661,229.427L512.329,231.214L511.962,232.972L511.55,234.753L511.495,234.966L511.892,235.103L512.726,235.395L513.574,235.7L514.428,236.013L515.289,236.336L516.16,236.671L517.04,237.016L517.925,237.372L518.812,237.736L519.707,238.112L520.607,238.5L521.506,238.895L522.41,239.302L523.314,239.717L524.214,240.141L525.119,240.576L526.023,241.019L526.919,241.469L527.814,241.927L528.706,242.394L529.59,242.866L530.473,243.347L531.349,243.834L532.214,244.324L533.07,244.818L533.213,244.902L533.526,245.074L534.104,245.396L534.805,245.792L535.63,246.268L536.587,246.833L537.563,247.425L538.295,247.881L538.96,248.302L539.68,248.768L540.426,249.26L541.253,249.818L542.15,250.44L543.087,251.108L544.126,251.87L545.239,252.714L546.437,253.655L547.744,254.723L549.156,255.926L550.69,257.297L552.349,258.859L554.171,260.678L556.137,262.776L558.268,265.225L560.231,267.685L561.683,269.64L562.936,271.42L564.202,273.331L565.489,275.398L566.797,277.656L568.102,280.091L569.429,282.792L570.721,285.704L571.964,288.837L573.149,292.253L574.243,295.945L575.201,299.892L575.997,304.099L576.584,308.528L576.938,313.183L577.015,318.134L576.777,323.157L576.216,328.26L575.3,333.439L574.043,338.565L572.453,343.59L570.566,348.432L568.397,353.089L565.99,357.501L563.423,361.588L560.745,365.343L557.974,368.802L556.201,370.784L555.196,375.233L552.823,382.459L549.775,389.428L546.079,396.075L541.768,402.341L541.766,402.344L536.852,408.202L531.402,413.565L525.465,418.382L519.095,422.611L519.09,422.613L511.374,426.667L503.262,429.857L503.256,429.859L502.698,430.018L502.394,430.155L501.559,430.53L500.701,430.915L499.819,431.308L498.91,431.711L497.978,432.122L497.022,432.54L496.039,432.967L495.067,433.384L494.519,433.618L494.002,433.837L493.475,434.059L492.938,434.284L492.397,434.51L491.855,434.734L491.303,434.961L490.74,435.191L490.176,435.42L489.543,435.674L488.713,436.004L487.827,436.35L486.946,436.689L486.065,437.021L485.189,437.346L484.317,437.665L483.442,437.979L482.569,438.287L481.7,438.588L480.831,438.885L479.962,439.177L479.091,439.464L478.222,439.746L477.352,440.023L476.479,440.296L475.606,440.565L474.732,440.829L473.857,441.089L472.978,441.345L472.097,441.597L471.212,441.845L470.324,442.089L469.433,442.329L468.536,442.565L467.637,442.797L466.728,443.026L465.817,443.251L464.902,443.471L463.977,443.688L463.045,443.9L462.104,444.109L461.248,444.294L460.302,444.494L459.45,444.673L458.601,444.851L457.755,445.026L456.913,445.199L456.074,445.371L455.239,445.54L454.406,445.708L453.577,445.875L452.752,446.039L451.93,446.202L451.092,446.367L449.484,446.682L447.87,446.995L446.27,447.302L444.682,447.605L443.109,447.903L441.549,448.196L440.004,448.486L438.465,448.773L435.422,449.338L434.793,449.454L434.136,449.574L433.48,449.692L432.828,449.808L432.178,449.923L431.532,450.035L430.884,450.147L430.238,450.257L429.596,450.366L428.955,450.473L428.316,450.578L427.679,450.682L427.044,450.785L426.41,450.886L425.778,450.986L425.147,451.085L424.519,451.182L423.894,451.278L423.271,451.373L422.621,451.471L421.412,451.65L420.181,451.828L418.959,452.002L417.743,452.172L416.536,452.338L415.339,452.499L414.147,452.657L412.964,452.811L411.789,452.961L410.621,453.108L409.464,453.252L408.312,453.393L407.17,453.531L406.037,453.665L404.911,453.798L403.793,453.927L402.685,454.055L401.584,454.18L400.493,454.303L399.411,454.423L398.334,454.543L397.266,454.66L396.221,454.774L395.174,454.888L394.13,455L393.071,455.114L391.001,455.332L388.923,455.549L386.848,455.763L384.778,455.974L382.714,456.181L380.655,456.386L378.6,456.587L376.55,456.787L374.506,456.983L372.466,457.178L370.431,457.37L368.402,457.56L366.377,457.748L364.357,457.934L362.342,458.119L360.333,458.302L358.328,458.484L356.323,458.665L352.346,459.023L348.381,459.377L344.435,459.73L340.511,460.081L336.598,460.432L334.658,460.607L332.72,460.783L330.777,460.96L328.835,461.138L326.891,461.317L324.947,461.497L322.999,461.679L321.058,461.861L317.146,462.229L313.235,462.6L309.315,462.973L305.386,463.349L301.445,463.726L293.545,464.482L289.574,464.861L285.596,465.239L281.613,465.615L279.608,465.803L277.607,465.99L275.601,466.177L273.593,466.363L271.582,466.548L269.568,466.732L267.551,466.915L265.531,467.098L263.507,467.279L261.48,467.459L259.45,467.638L257.417,467.816L255.38,467.992L253.34,468.167L251.297,468.341L249.25,468.512L247.199,468.683L245.145,468.851L243.088,469.018L241.027,469.182L238.961,469.345L236.892,469.505L234.82,469.664L232.745,469.82L230.664,469.974L228.581,470.125L226.493,470.274L224.402,470.421L222.307,470.565L220.207,470.706L218.119,470.843L217.052,470.912L215.997,470.979L214.941,471.046L213.886,471.112L212.828,471.177L211.771,471.241L210.711,471.305L209.651,471.368L208.588,471.429L207.527,471.491L206.464,471.551L205.398,471.61L204.333,471.669L203.31,471.724L201.713,471.811L200.148,471.898L198.57,471.988L196.979,472.079L195.375,472.174L193.757,472.27L192.127,472.368L190.494,472.467L187.163,472.672L183.798,472.88L180.387,473.092L176.942,473.305L175.194,473.412L173.441,473.519L171.676,473.625L169.902,473.731L168.119,473.836L166.325,473.94L164.522,474.043L162.709,474.145L160.886,474.245L159.055,474.344L157.215,474.44L155.365,474.534L153.506,474.626L151.656,474.714L150.703,474.759L149.763,474.801L148.822,474.843L147.879,474.884L146.933,474.925L145.985,474.964L145.035,475.003L144.083,475.041L143.129,475.077L142.174,475.113L141.216,475.148L140.255,475.182L139.294,475.214L138.33,475.246L137.362,475.276L136.395,475.306L135.424,475.334L134.451,475.361L133.478,475.386L132.502,475.411L131.523,475.434L130.544,475.455L129.562,475.476L128.579,475.495L127.593,475.512L126.604,475.528L125.614,475.543L124.623,475.556L123.63,475.567L122.635,475.577L121.638,475.585L120.638,475.592L119.639,475.596L118.636,475.599L117.63,475.601L116.623,475.6L115.616,475.598L114.607,475.594L113.593,475.587L112.58,475.579L111.565,475.569L110.548,475.557L109.529,475.543L108.507,475.527L107.486,475.508L106.46,475.488L105.434,475.465L104.406,475.44L103.377,475.412L102.344,475.382L101.311,475.35L100.276,475.316L99.239,475.279L98.201,475.24L97.161,475.198L96.12,475.153L95.076,475.106L94.029,475.056L92.982,475.004L91.932,474.948L90.883,474.89L89.831,474.83L88.776,474.766L87.72,474.699L86.663,474.629L85.603,474.557L84.543,474.481L83.494,474.403L82.629,474.337L81.78,474.27L80.932,474.201L80.088,474.131L79.247,474.059L78.408,473.986L77.571,473.911L76.736,473.835L75.907,473.757L75.079,473.678L74.253,473.598L73.429,473.516L72.608,473.434L71.792,473.35L70.977,473.264L70.163,473.178L69.354,473.09L68.546,473.002L67.742,472.912L66.941,472.822L66.139,472.73L65.342,472.637L64.549,472.544L63.757,472.449L62.97,472.354L62.183,472.258L61.397,472.161L60.617,472.064L59.84,471.965L59.063,471.866L58.29,471.767L57.52,471.667L56.752,471.566L55.988,471.465L55.225,471.363L54.443,471.257L52.952,471.054L51.45,470.846L49.96,470.637L48.479,470.427L47.009,470.215L45.548,470.003L44.099,469.791L42.661,469.578L41.233,469.365L39.815,469.152L38.408,468.939L37.002,468.726L34.194,468.297L33.224,468.147L32.257,467.993L31.356,467.849L30.53,467.715L29.045,467.474L28.416,467.372L27.901,467.291L26.994,467.402L18.333,467.522L9.709,466.704L1.225,464.959L-7.022,462.307L-14.933,458.778L-22.416,454.415L-29.384,449.269L-35.754,443.399L-41.452,436.875L-46.412,429.774L-46.856,428.963L-47.275,428.926L-48.056,428.859L-49.003,428.777L-49.584,428.725L-50.189,428.67L-50.836,428.609L-51.52,428.544L-52.244,428.472L-53.002,428.394L-53.798,428.309L-54.629,428.216L-55.495,428.116L-56.398,428.007L-57.271,427.896L-57.809,427.825L-58.298,427.76L-58.793,427.692L-59.301,427.62L-59.82,427.545L-60.342,427.468L-60.875,427.388L-61.42,427.303L-61.968,427.216L-62.533,427.124L-63.104,427.028L-63.679,426.93L-64.267,426.827L-64.866,426.719L-65.479,426.605L-66.095,426.488L-66.724,426.366L-67.366,426.238L-68.012,426.105L-68.672,425.966L-69.346,425.82L-70.028,425.669L-70.721,425.511L-71.427,425.345L-72.144,425.173L-72.871,424.993L-73.614,424.805L-74.372,424.607L-75.136,424.402L-75.916,424.187L-76.714,423.961L-77.518,423.727L-78.344,423.479L-79.183,423.221L-80.03,422.952L-80.9,422.668L-81.784,422.372L-82.677,422.063L-83.595,421.737L-84.532,421.394L-85.479,421.037L-86.442,420.663L-87.431,420.267L-88.431,419.854L-89.453,419.42L-90.496,418.962L-91.553,418.485L-92.631,417.982L-93.731,417.451L-94.85,416.895L-95.987,416.31L-97.017,415.763L-97.728,415.377L-98.321,415.048L-98.909,414.717L-99.517,414.369L-100.129,414.013L-100.736,413.653L-101.347,413.285L-101.969,412.903L-102.602,412.508L-103.231,412.109L-103.864,411.699L-104.508,411.275L-105.154,410.842L-105.805,410.398L-106.458,409.943L-107.113,409.479L-107.771,409.004L-108.441,408.511L-109.113,408.007L-109.786,407.492L-110.462,406.965L-111.148,406.42L-111.829,405.867L-112.511,405.303L-113.208,404.715L-113.901,404.118L-114.594,403.508L-115.288,402.885L-115.983,402.247L-116.684,401.59L-117.391,400.912L-118.092,400.225L-118.786,399.53L-119.492,398.807L-120.195,398.07L-120.891,397.324L-121.59,396.556L-122.294,395.765L-122.988,394.965L-123.677,394.151L-124.37,393.313L-125.057,392.46L-125.738,391.591L-126.416,390.704L-127.087,389.804L-127.75,388.888L-128.417,387.942L-129.071,386.986L-129.713,386.022L-130.35,385.037L-130.982,384.03L-131.604,383.007L-132.212,381.976L-132.811,380.926L-133.4,379.861L-133.977,378.781L-134.544,377.682L-135.097,376.572L-135.635,375.453L-136.684,373.186L-138.59,368.52L-140.613,362.158L-141.378,358.763L-142.644,351.646L-142.646,351.633L-143.277,344.104L-143.278,344.091L-143.187,336.386L-143.187,336.373L-142.353,328.697L-142.351,328.684L-140.816,321.261L-140.813,321.248L-138.656,314.207L-137.47,310.889L-134.629,304.712L-131.533,299.214L-128.276,294.332L-124.939,290.025L-121.674,286.333L-118.547,283.184L-115.518,280.441L-112.65,278.087L-109.38,275.633L-105.199,272.861L-100.949,270.43L-97.256,268.581L-94.04,267.155L-91.264,266.055L-88.825,265.181L-86.647,264.473L-84.722,263.902L-82.995,263.432L-81.467,263.05L-80.08,262.728L-79.059,262.508L-79.169,261.836L-79.307,260.931L-79.437,260.02L-79.558,259.104L-79.67,258.181L-79.773,257.254L-79.867,256.322L-79.951,255.384L-80.026,254.443L-80.091,253.497L-80.147,252.547L-80.192,251.593L-80.227,250.636L-80.253,249.675L-80.268,248.711L-80.272,247.745L-80.266,246.776L-80.25,245.805L-80.223,244.832L-80.186,243.858L-80.138,242.883L-80.079,241.906L-80.009,240.929L-79.929,239.951L-79.838,238.974L-79.709,237.739L-79.502,236.042L-79.219,234.107L-78.894,232.198L-78.529,230.317L-78.124,228.464L-77.866,227.399L-77.872,227.394L-78.327,227.007L-78.78,226.619L-79.231,226.229L-79.683,225.835L-80.131,225.44L-80.58,225.042L-81.028,224.641L-81.474,224.238L-81.919,223.832L-82.363,223.424L-82.805,223.014L-83.246,222.602L-83.685,222.187L-84.125,221.768L-84.563,221.347L-84.996,220.927L-85.431,220.501L-85.866,220.072L-86.296,219.643L-86.725,219.212L-87.155,218.776L-87.581,218.339L-88.005,217.901L-88.43,217.458L-88.853,217.013L-89.273,216.567L-89.692,216.119L-90.108,215.668L-90.524,215.214L-90.938,214.758L-91.35,214.299L-91.761,213.838L-92.168,213.376L-92.574,212.911L-92.98,212.443L-93.383,211.973L-93.783,211.501L-94.183,211.027L-94.579,210.55L-94.974,210.072L-95.367,209.591L-95.759,209.107L-96.148,208.621L-96.534,208.135L-96.918,207.646L-97.302,207.153L-97.681,206.661L-98.06,206.165L-98.437,205.666L-98.811,205.165L-99.182,204.664L-99.551,204.16L-99.919,203.654L-100.283,203.147L-100.645,202.637L-101.006,202.125L-101.364,201.611L-101.719,201.096L-102.072,200.578L-102.423,200.058L-102.771,199.537L-103.115,199.016L-103.459,198.491L-103.8,197.964L-104.138,197.437L-104.473,196.907L-104.807,196.375L-105.137,195.842L-105.465,195.307L-105.79,194.771L-106.112,194.235L-106.432,193.696L-106.751,193.153L-107.065,192.611L-107.376,192.069L-107.685,191.524L-107.992,190.977L-108.296,190.429L-108.597,189.88L-108.895,189.329L-109.191,188.778L-109.483,188.225L-109.773,187.671L-110.061,187.115L-110.345,186.559L-110.627,186.001L-110.905,185.443L-111.181,184.883L-111.455,184.321L-111.724,183.76L-111.991,183.198L-112.256,182.634L-112.518,182.069L-112.777,181.503L-113.033,180.936L-113.286,180.37L-113.536,179.802L-113.783,179.233L-114.028,178.663L-114.269,178.094L-114.508,177.522L-114.744,176.95L-114.976,176.378L-115.206,175.805L-115.433,175.232L-115.657,174.658L-115.879,174.083L-116.097,173.509L-116.313,172.933L-116.525,172.357L-116.735,171.78L-116.942,171.204L-117.146,170.627L-117.347,170.049L-117.545,169.471L-117.74,168.894L-117.933,168.316L-118.123,167.736L-118.309,167.159L-118.493,166.58L-118.674,166L-118.853,165.421L-119.028,164.843L-119.201,164.263L-119.371,163.683L-119.538,163.104L-119.702,162.526L-119.863,161.946L-120.022,161.366L-120.178,160.787L-120.331,160.208L-120.482,159.629L-120.629,159.051L-120.774,158.472L-120.917,157.892L-121.057,157.314L-121.193,156.737L-121.328,156.159L-121.46,155.58L-121.588,155.003L-121.715,154.426L-121.838,153.849L-121.96,153.272L-122.078,152.696L-122.194,152.12L-122.308,151.545L-122.419,150.969L-122.527,150.394L-122.633,149.82L-122.736,149.246L-122.837,148.673L-122.935,148.099L-123.031,147.527L-123.124,146.955L-123.215,146.383L-123.304,145.812L-123.39,145.242L-123.474,144.671L-123.555,144.103L-123.634,143.533L-123.711,142.964L-123.785,142.397L-123.857,141.829L-123.927,141.263L-123.994,140.697L-124.059,140.131L-124.122,139.566L-124.183,139.003L-124.241,138.439L-124.298,137.876L-124.352,137.313L-124.404,136.752L-124.453,136.191L-124.501,135.631L-124.547,135.071L-124.59,134.512L-124.631,133.954L-124.671,133.396L-124.708,132.839L-124.743,132.283L-124.776,131.728L-124.807,131.173L-124.836,130.619L-124.863,130.066L-124.888,129.513L-124.911,128.961L-124.933,128.41L-124.952,127.859L-124.969,127.31L-124.985,126.761L-124.998,126.212L-125.01,125.665L-125.02,125.119L-125.028,124.572L-125.034,124.034L-125.045,123.857L-125.071,123.403L-125.101,122.876L-125.133,122.268L-125.166,121.578L-125.198,120.807L-125.229,119.95L-125.255,119.008L-125.274,117.98L-125.284,116.978L-125.284,116.28L-125.281,115.664L-125.274,115.024L-125.263,114.362L-125.246,113.674L-125.224,112.962L-125.196,112.225L-125.16,111.463L-125.118,110.676L-125.067,109.863L-125.007,109.022L-124.938,108.156L-124.857,107.263L-124.766,106.342L-124.662,105.394L-124.545,104.418L-124.413,103.414L-124.266,102.382L-124.102,101.322L-123.92,100.23L-123.72,99.112L-123.477,97.851L-123.174,96.404L-122.813,94.833L-122.42,93.261L-121.994,91.689L-121.536,90.121L-121.045,88.555L-120.52,86.993L-119.964,85.439L-119.376,83.894L-118.757,82.361L-118.108,80.838L-117.429,79.333L-116.722,77.843L-115.986,76.371L-115.226,74.92L-114.437,73.486L-113.626,72.076L-112.792,70.691L-111.935,69.329L-111.058,67.992L-110.164,66.685L-109.252,65.404L-108.322,64.15L-107.379,62.925L-106.423,61.73L-105.457,60.567L-104.48,59.433L-103.493,58.329L-102.503,57.259L-101.506,56.219L-100.498,55.203L-99.491,54.222L-98.486,53.274L-97.48,52.357L-96.469,51.465L-95.459,50.602L-94.458,49.773L-93.458,48.971L-92.46,48.195L-91.464,47.443L-90.479,46.723L-89.502,46.03L-88.526,45.358L-87.562,44.714L-86.606,44.093L-85.655,43.495L-84.717,42.921L-83.79,42.369L-82.866,41.836L-81.959,41.327L-81.059,40.837L-80.167,40.364L-79.294,39.914L-78.231,39.382L-76.733,38.663L-75.077,37.911L-73.466,37.219L-72.093,36.662L-72.029,36.463L-71.751,35.624L-71.486,34.841L-71.235,34.115L-70.999,33.446L-70.779,32.834L-70.577,32.277L-70.393,31.774L-70.218,31.301L-69.953,30.592L-69.735,30.007L-69.556,29.527L-69.502,29.38L-69.382,29.053L-69.145,28.411L-68.806,27.514L-68.461,26.625L-68.216,26.008L-67.993,25.456L-67.757,24.88L-67.507,24.28L-67.243,23.656L-66.962,23.007L-66.666,22.334L-66.352,21.634L-66.018,20.908L-65.665,20.155L-65.291,19.374L-64.894,18.563L-64.472,17.724L-64.024,16.854L-63.547,15.951L-63.04,15.016L-62.499,14.047L-61.923,13.042L-61.308,12.001L-60.65,10.922L-59.948,9.805L-59.195,8.647L-58.389,7.449L-57.524,6.208L-56.595,4.924L-55.714,3.753L-54.993,2.823L-54.369,2.034L-53.727,1.239L-53.066,0.439L-52.385,-0.367L-51.685,-1.178L-50.965,-1.993L-50.224,-2.812L-49.462,-3.636L-48.678,-4.462L-47.873,-5.291L-47.046,-6.121L-46.196,-6.952L-45.322,-7.784L-44.426,-8.616L-43.508,-9.445L-42.565,-10.273L-41.6,-11.098L-40.612,-11.918L-39.601,-12.733L-38.568,-13.541L-37.513,-14.342L-36.436,-15.134L-35.338,-15.917L-34.219,-16.689L-33.082,-17.449L-31.925,-18.195L-30.751,-18.928L-29.561,-19.644L-28.355,-20.344L-27.135,-21.027L-25.903,-21.691L-24.66,-22.336L-23.408,-22.96L-22.148,-23.563L-20.882,-24.145L-19.611,-24.704L-18.338,-25.241L-17.064,-25.754L-15.793,-26.244L-14.524,-26.711L-13.258,-27.154L-12.001,-27.573L-10.752,-27.968L-9.515,-28.34L-8.289,-28.689L-7.076,-29.015L-5.879,-29.319L-4.698,-29.602L-3.537,-29.863L-2.397,-30.104L-1.276,-30.325L-0.177,-30.528L0.897,-30.712L1.947,-30.88L2.972,-31.031L3.971,-31.166L4.942,-31.288L5.887,-31.395L6.801,-31.49L7.69,-31.573L8.548,-31.645L9.375,-31.707L10.174,-31.76L10.943,-31.804L11.681,-31.841L12.392,-31.871L13.07,-31.895L13.717,-31.913L14.449,-31.929L15.468,-31.942L16.033,-31.943L16.483,-32.006L17.218,-32.106L17.95,-32.202L18.678,-32.294L19.402,-32.384L20.122,-32.469L20.838,-32.551L21.551,-32.63L22.26,-32.706L22.965,-32.778L23.666,-32.848L24.363,-32.914L25.056,-32.977L25.745,-33.038L26.431,-33.095L27.112,-33.15L27.789,-33.202L28.462,-33.251L29.131,-33.298L29.796,-33.342L30.457,-33.384L31.114,-33.423L31.767,-33.46L32.416,-33.495L33.06,-33.528L33.7,-33.558L34.337,-33.586L34.969,-33.612L35.596,-33.636L36.22,-33.659L36.839,-33.679L37.454,-33.698L38.065,-33.714L38.672,-33.73L39.275,-33.743L39.873,-33.755L40.467,-33.765L41.057,-33.774L41.643,-33.781L42.224,-33.787L42.802,-33.792L43.375,-33.795L43.943,-33.797L44.508,-33.798L45.068,-33.798L45.624,-33.797L46.176,-33.795L46.758,-33.791L47.804,-33.782L48.87,-33.769L49.919,-33.753L50.951,-33.734L51.966,-33.712L52.964,-33.689L53.946,-33.663L54.911,-33.636L55.859,-33.607L56.79,-33.578L57.705,-33.548L58.62,-33.516L60.342,-33.454L62.022,-33.391L63.637,-33.331L65.185,-33.273L66.694,-33.219L67.394,-33.195L68.095,-33.171L68.779,-33.15L69.447,-33.129L70.099,-33.111L70.734,-33.094L71.353,-33.08L71.956,-33.067L72.543,-33.056L73.113,-33.047L73.667,-33.04L74.205,-33.035L74.766,-33.032L74.984,-33.031L75.239,-33.031L75.537,-33.031L75.84,-33.032L76.144,-33.033L76.45,-33.035L76.758,-33.038L77.035,-33.041L77.694,-33.049L78.327,-33.059L78.967,-33.071L79.615,-33.085L80.271,-33.101L80.934,-33.119L81.605,-33.14L82.283,-33.162L82.969,-33.187L83.663,-33.214L84.365,-33.242L85.074,-33.273L85.791,-33.305L86.515,-33.34L87.248,-33.376L87.988,-33.414L88.736,-33.454L89.492,-33.495L90.255,-33.539L91.027,-33.583L91.806,-33.63L92.593,-33.678L93.388,-33.727L94.19,-33.778L95.001,-33.83L95.819,-33.883L96.633,-33.937L98.325,-34.05L100.033,-34.167L101.775,-34.286L105.343,-34.532L107.18,-34.658L109.046,-34.784L110.925,-34.908L111.902,-34.971L112.87,-35.033L113.848,-35.095L114.833,-35.155L115.826,-35.215L116.827,-35.274L117.836,-35.333L118.854,-35.39L119.879,-35.445L120.912,-35.5L121.954,-35.553L123.003,-35.604L124.061,-35.653L125.127,-35.701L126.2,-35.746L127.282,-35.789L128.372,-35.83L129.446,-35.868L130.386,-35.899L131.303,-35.928L132.218,-35.955L133.133,-35.982L134.047,-36.007L134.96,-36.03L135.871,-36.053L136.782,-36.074L137.692,-36.093L138.601,-36.112L139.51,-36.129L140.417,-36.145L141.323,-36.16L142.229,-36.173L143.133,-36.186L144.037,-36.197L144.94,-36.207L145.841,-36.216L146.742,-36.223L147.642,-36.23L148.541,-36.235L149.439,-36.239L150.336,-36.242L151.232,-36.244L152.128,-36.245L153.022,-36.245L153.916,-36.243L154.808,-36.241L155.7,-36.237L156.591,-36.233L157.481,-36.227L158.369,-36.221L159.258,-36.213L160.145,-36.204L161.031,-36.195L161.916,-36.184L162.801,-36.173L163.684,-36.16L164.567,-36.146L165.449,-36.132L166.33,-36.117L167.21,-36.1L168.089,-36.083L168.967,-36.065L169.844,-36.046L170.721,-36.026L171.596,-36.005L172.471,-35.983L173.345,-35.961L174.217,-35.937L175.09,-35.913L175.961,-35.888L176.831,-35.862L177.719,-35.835L179.436,-35.78L181.169,-35.721L182.898,-35.659L184.624,-35.595L186.346,-35.527L188.066,-35.457L189.781,-35.384L191.493,-35.308L193.203,-35.23L194.908,-35.149L196.61,-35.066L198.31,-34.981L200.005,-34.893L201.698,-34.804L203.387,-34.712L205.074,-34.618L206.756,-34.522L208.436,-34.425L210.113,-34.326L211.787,-34.224L213.457,-34.122L215.125,-34.018L216.789,-33.912L218.45,-33.805L220.109,-33.696L221.764,-33.587L223.417,-33.476L225.066,-33.364L226.713,-33.251L228.357,-33.137L229.998,-33.022L231.636,-32.906L233.271,-32.789L234.904,-32.672L236.542,-32.553L239.722,-32.321L239.922,-32.307L240.014,-32.3L240.343,-32.278L240.636,-32.26L240.94,-32.243L241.253,-32.226L241.577,-32.21L241.911,-32.195L242.255,-32.18L242.61,-32.167L242.975,-32.154L243.35,-32.143L243.735,-32.132L244.131,-32.122L244.538,-32.114L244.954,-32.106L245.382,-32.099L245.819,-32.094L246.267,-32.089L246.725,-32.085L247.194,-32.082L247.673,-32.081L248.162,-32.08L248.663,-32.08L249.173,-32.081L249.693,-32.083L250.224,-32.085L250.765,-32.089L251.297,-32.093L252.456,-32.104L253.632,-32.117L254.849,-32.131L256.115,-32.147L258.74,-32.181L260.13,-32.197L261.553,-32.212L262.991,-32.224L263.761,-32.229L264.519,-32.233L265.287,-32.236L266.066,-32.237L266.855,-32.238L267.654,-32.236L268.464,-32.234ZM30.581,466.962L30.598,466.961L30.825,466.945L31.065,466.927L31.305,466.907L31.547,466.886L31.801,466.863L32.056,466.838L32.318,466.811L32.581,466.782L32.85,466.751L33.132,466.717L33.415,466.681L33.705,466.642L33.995,466.602L34.291,466.558L34.594,466.512L34.904,466.463L35.221,466.411L35.531,466.358L35.592,466.347L30.581,466.962Z" style="fill:white;"/>
    </g>
</svg>
