<?xml version="1.0" encoding="UTF-8" standalone="no"?>
<!DOCTYPE svg PUBLIC "-//W3C//DTD SVG 1.1//EN" "http://www.w3.org/Graphics/SVG/1.1/DTD/svg11.dtd">
<svg width="100%" height="100%" viewBox="0 0 64 64" version="1.1" xmlns="http://www.w3.org/2000/svg" xmlns:xlink="http://www.w3.org/1999/xlink" xml:space="preserve" xmlns:serif="http://www.serif.com/" style="fill-rule:evenodd;clip-rule:evenodd;stroke-linejoin:round;stroke-miterlimit:2;">
    <clipPath id="_clip1">
        <path d="M6.665,32.063C6.665,42.232 12.573,51.021 21.145,55.185L8.889,21.607C7.462,24.802 6.665,28.337 6.665,32.063ZM49.702,30.767C49.702,27.59 48.56,25.392 47.584,23.681C46.279,21.565 45.06,19.774 45.06,17.655C45.06,15.296 46.849,13.096 49.375,13.096C49.487,13.096 49.593,13.11 49.707,13.116C45.134,8.929 39.047,6.373 32.356,6.373C23.379,6.373 15.485,10.976 10.888,17.952C11.493,17.971 12.06,17.983 12.545,17.983C15.23,17.983 19.39,17.654 19.39,17.654C20.774,17.574 20.94,19.61 19.555,19.774C19.555,19.774 18.163,19.936 16.613,20.019L25.971,47.847L31.593,30.984L27.592,20.018C26.208,19.935 24.897,19.773 24.897,19.773C23.511,19.69 23.673,17.573 25.06,17.654C25.06,17.654 29.302,17.982 31.826,17.982C34.514,17.982 38.674,17.654 38.674,17.654C40.058,17.573 40.223,19.609 38.838,19.773C38.838,19.773 37.445,19.935 35.898,20.018L45.183,47.636L47.747,39.075C49.047,35.733 49.702,32.968 49.702,30.767ZM32.808,34.308L25.099,56.71C27.401,57.389 29.835,57.756 32.356,57.756C35.347,57.756 38.218,57.239 40.888,56.301C40.82,56.191 40.756,56.075 40.706,55.944L32.808,34.308ZM54.903,19.737C55.012,20.556 55.076,21.433 55.076,22.379C55.076,24.987 54.589,27.917 53.122,31.581L45.274,54.271C52.914,49.817 58.05,41.541 58.05,32.063C58.05,27.595 56.907,23.397 54.903,19.737ZM2.406,32.063C2.406,48.579 15.843,62.014 32.356,62.014C48.87,62.014 62.307,48.579 62.307,32.063C62.307,15.549 48.87,2.113 32.356,2.113C15.843,2.113 2.406,15.549 2.406,32.063ZM3.78,32.063C3.78,16.308 16.6,3.49 32.356,3.49C48.115,3.49 60.934,16.308 60.934,32.063C60.934,47.82 48.115,60.641 32.356,60.641C16.6,60.641 3.78,47.82 3.78,32.063Z" clip-rule="nonzero"/>
    </clipPath>
    <g clip-path="url(#_clip1)">
        <path d="M62.503,-3.192L62.915,-3.119L63.322,-3.018L63.72,-2.889L64.108,-2.732L64.485,-2.549L64.848,-2.339L65.195,-2.105L65.525,-1.847L65.836,-1.567L66.127,-1.266L66.397,-0.945L66.643,-0.607L66.865,-0.252L67.062,0.118L67.232,0.501L67.375,0.894L67.491,1.297L67.578,1.706L67.637,2.121L67.666,2.539L67.666,2.958L67.637,3.375L67.579,3.79L67.546,3.945L67.771,4.053L67.969,4.157L68.157,4.262L68.37,4.391L68.614,4.552L68.897,4.759L69.228,5.033L69.406,5.205L69.609,5.411L69.803,5.627L69.816,5.642L70.051,5.936L70.267,6.244L70.277,6.259L70.463,6.561L70.631,6.874L70.635,6.881L70.754,7.136L70.862,7.396L70.865,7.403L70.971,7.7L71.061,8.002L71.063,8.009L71.144,8.347L71.205,8.689L71.206,8.696L71.251,9.075L71.271,9.455L71.271,9.462L71.266,9.858L71.236,10.253L71.235,10.26L71.176,10.666L71.101,11.012L71.16,11.095L71.375,11.444L71.566,11.807L71.731,12.182L71.871,12.567L71.984,12.961L72.069,13.362L72.127,13.768L72.158,14.176L72.16,14.586L72.134,14.995L72.081,15.401L72.08,15.403L72.002,15.792L71.899,16.175L71.77,16.55L71.617,16.916L71.44,17.271L71.239,17.613L71.017,17.942L70.773,18.255L70.51,18.551L70.227,18.83L69.926,19.089L69.609,19.327L69.277,19.544L68.932,19.739L68.574,19.91L68.571,19.911L68.256,20.039L67.934,20.149L67.606,20.24L67.274,20.313L66.938,20.367L66.927,20.368L66.638,20.399L66.347,20.416L66.217,20.42L66.005,20.419L65.823,20.414L65.664,20.407L65.235,20.407L65.258,20.431L65.417,20.609L65.573,20.791L65.728,20.978L65.879,21.168L66.028,21.364L66.175,21.564L66.319,21.768L66.46,21.978L66.597,22.193L66.731,22.413L66.862,22.638L66.988,22.868L67.111,23.104L67.22,23.328L67.285,23.467L67.341,23.591L67.396,23.717L67.45,23.843L67.502,23.971L67.552,24.101L67.602,24.231L67.65,24.363L67.696,24.497L67.741,24.632L67.784,24.768L67.825,24.906L67.865,25.045L67.903,25.185L67.94,25.326L67.974,25.469L68.006,25.613L68.037,25.758L68.066,25.905L68.092,26.052L68.117,26.2L68.139,26.35L68.159,26.5L68.177,26.652L68.193,26.805L68.208,26.985L68.224,27.243L68.232,27.569L68.223,27.903L68.205,28.164L68.18,28.404L68.142,28.667L68.087,28.958L68.011,29.278L67.907,29.626L67.772,29.996L67.92,30.062L68.261,30.242L68.591,30.444L68.906,30.667L69.207,30.91L69.491,31.171L69.758,31.451L69.762,31.455L69.896,31.613L69.907,31.617L70.203,31.724L70.493,31.846L70.776,31.984L70.783,31.987L71.129,32.181L71.462,32.398L71.78,32.636L72.081,32.895L72.365,33.173L72.63,33.47L72.874,33.783L72.875,33.784L73.109,34.13L73.319,34.492L73.503,34.868L73.66,35.255L73.79,35.653L73.891,36.059L73.965,36.47L74.009,36.886L74.025,37.304L74.011,37.722L73.968,38.138L73.897,38.55L73.796,38.956L73.668,39.354L73.512,39.742L73.33,40.119L73.122,40.481L72.889,40.829L72.633,41.159L72.632,41.16L72.374,41.449L72.099,41.721L71.806,41.975L71.498,42.209L71.175,42.423L70.839,42.616L70.491,42.786L70.392,42.831L70.234,42.899L70.077,42.961L70.028,42.98L69.994,43.147L69.895,43.632L69.697,44.586L69.5,45.53L69.306,46.466L69.211,46.927L69.117,47.387L69.026,47.844L68.936,48.298L68.848,48.75L68.762,49.199L68.679,49.646L68.599,50.09L68.521,50.531L68.446,50.975L68.411,51.189L68.375,51.407L68.341,51.625L68.308,51.842L68.275,52.059L68.243,52.274L68.213,52.49L68.183,52.705L68.154,52.919L68.126,53.133L68.099,53.346L68.074,53.558L68.049,53.771L68.025,53.982L68.003,54.194L67.981,54.404L67.961,54.615L67.942,54.825L67.924,55.034L67.907,55.244L67.898,55.364L67.89,55.479L67.874,55.733L67.86,55.983L67.848,56.237L67.838,56.495L67.83,56.757L67.823,57.023L67.818,57.293L67.813,57.567L67.81,57.845L67.808,58.127L67.807,58.411L67.806,59L67.806,59.544L67.809,59.697L67.813,59.902L67.816,60.146L67.818,60.41L67.817,60.676L67.814,60.863L67.805,61.08L67.788,61.321L67.772,61.461L67.734,61.74L67.682,62.016L67.68,62.026L67.581,62.429L67.454,62.823L67.301,63.208L67.299,63.21L67.126,63.571L66.929,63.919L66.71,64.254L66.468,64.573L66.206,64.875L65.924,65.159L65.624,65.424L65.623,65.425L65.299,65.674L64.958,65.901L64.602,66.104L64.234,66.282L63.854,66.435L63.465,66.562L63.068,66.661L62.665,66.734L62.532,66.753L62.367,66.775L62.205,66.795L62.043,66.813L61.884,66.829L61.726,66.844L61.569,66.857L61.415,66.868L61.262,66.878L61.111,66.887L60.962,66.894L60.804,66.9L60.525,66.909L60.242,66.913L59.965,66.915L59.696,66.913L59.433,66.909L59.177,66.902L58.928,66.894L58.686,66.885L58.451,66.874L58.219,66.863L57.789,66.841L57.379,66.819L56.991,66.8L56.816,66.793L56.643,66.786L56.479,66.781L56.322,66.777L56.172,66.775L56.031,66.774L55.898,66.775L55.773,66.777L55.645,66.781L55.601,66.783L55.552,66.786L55.529,66.787L55.506,66.789L55.481,66.791L55.453,66.794L55.421,66.797L55.398,66.799L55.306,66.811L55.215,66.823L55.112,66.839L54.998,66.857L54.873,66.879L54.737,66.903L54.591,66.93L54.257,66.992L53.897,67.059L53.692,67.096L53.616,67.109L53.547,67.124L53.326,67.168L53.156,67.199L52.972,67.229L52.752,67.26L52.515,67.287L52.328,67.303L52.14,67.315L51.918,67.322L51.649,67.321L51.312,67.305L51.161,67.289L51.123,67.332L50.998,67.468L50.869,67.604L50.737,67.738L50.602,67.871L50.463,68.002L50.322,68.132L50.176,68.26L50.028,68.386L49.876,68.51L49.722,68.631L49.564,68.75L49.403,68.866L49.24,68.979L49.073,69.089L48.905,69.195L48.734,69.298L48.562,69.397L48.388,69.492L48.212,69.584L48.036,69.671L47.859,69.754L47.681,69.833L47.503,69.908L47.325,69.979L47.148,70.045L46.972,70.108L46.796,70.166L46.621,70.22L46.448,70.271L46.277,70.318L46.108,70.361L45.94,70.401L45.775,70.437L45.612,70.47L45.451,70.501L45.293,70.528L45.136,70.553L44.983,70.576L44.832,70.596L44.684,70.614L44.538,70.63L44.394,70.645L44.253,70.657L44.114,70.668L43.966,70.679L43.713,70.693L43.454,70.704L43.204,70.712L42.96,70.717L42.721,70.719L42.578,70.72L42.528,70.723L42.395,70.732L42.205,70.745L41.978,70.756L41.821,70.762L41.663,70.765L41.49,70.766L41.302,70.764L41.097,70.757L40.876,70.744L40.636,70.724L40.377,70.694L40.097,70.651L39.796,70.594L39.508,70.526L39.306,70.472L39.13,70.419L38.948,70.36L38.761,70.293L38.57,70.218L38.373,70.135L38.172,70.042L37.968,69.939L37.759,69.826L37.549,69.701L37.338,69.566L37.126,69.418L36.914,69.258L36.705,69.086L36.499,68.903L36.431,68.837L36.24,68.851L36.105,68.856L35.546,68.857L35.107,68.859L34.667,68.862L34.226,68.866L33.784,68.872L33.341,68.878L32.897,68.885L32.453,68.893L31.556,68.912L30.657,68.932L29.753,68.954L28.844,68.977L27.931,69L27.013,69.022L26.09,69.043L25.165,69.062L24.697,69.071L24.23,69.078L23.762,69.085L23.293,69.091L22.823,69.095L22.351,69.099L21.878,69.101L21.414,69.102L20.853,69.103L20.299,69.106L19.742,69.11L19.183,69.116L18.621,69.123L18.057,69.131L16.916,69.148L15.768,69.166L15.188,69.174L14.606,69.181L14.021,69.187L13.432,69.192L12.841,69.195L12.262,69.196L12.047,69.197L11.844,69.198L11.636,69.201L11.424,69.205L11.207,69.209L10.99,69.215L10.533,69.227L9.581,69.255L9.084,69.269L8.578,69.281L8.312,69.285L8.048,69.289L7.779,69.291L7.508,69.292L7.233,69.292L6.955,69.29L6.673,69.285L6.388,69.279L6.1,69.269L5.808,69.258L5.513,69.243L5.215,69.225L4.913,69.203L4.609,69.178L4.31,69.149L4.146,69.132L3.998,69.116L3.357,69.041L2.773,68.973L2.725,68.968L2.615,68.956L2.441,68.935L2.218,68.903L1.976,68.86L1.791,68.822L1.617,68.782L1.423,68.732L1.207,68.669L0.967,68.591L0.7,68.492L0.401,68.366L0.066,68.203L-0.307,67.992L-0.719,67.719L-0.937,67.546L-1.164,67.358L-1.289,67.243L-1.47,67.176L-1.878,66.989L-2.182,66.826L-2.443,66.67L-2.712,66.491L-2.989,66.285L-3.267,66.052L-3.533,65.8L-3.781,65.538L-3.995,65.288L-4.187,65.041L-4.358,64.8L-4.51,64.566L-4.646,64.339L-4.766,64.119L-4.874,63.908L-4.97,63.704L-5.055,63.507L-5.131,63.318L-5.2,63.136L-5.261,62.96L-5.315,62.791L-5.365,62.627L-5.409,62.469L-5.449,62.315L-5.485,62.167L-5.518,62.023L-5.547,61.883L-5.573,61.748L-5.601,61.598L-5.639,61.363L-5.673,61.121L-5.7,60.89L-5.723,60.67L-5.741,60.459L-5.755,60.256L-5.766,60.062L-5.774,59.876L-5.78,59.698L-5.785,59.529L-5.787,59.367L-5.789,59.214L-5.789,59.064L-5.788,58.815L-5.786,58.601L-5.784,58.446L-5.783,58.339L-5.783,56.082L-5.783,55.861L-5.781,55.634L-5.779,55.406L-5.775,55.177L-5.771,54.947L-5.765,54.717L-5.758,54.486L-5.75,54.255L-5.741,54.023L-5.731,53.79L-5.719,53.556L-5.706,53.322L-5.692,53.088L-5.676,52.852L-5.659,52.616L-5.64,52.379L-5.626,52.21L-5.611,52.041L-5.594,51.873L-5.577,51.698L-5.541,51.375L-5.501,51.048L-5.458,50.724L-5.413,50.405L-5.366,50.089L-5.316,49.777L-5.265,49.469L-5.212,49.165L-5.158,48.864L-5.103,48.568L-5.047,48.275L-4.99,47.987L-4.933,47.702L-4.855,47.32L-4.805,47.115L-4.765,46.961L-4.697,46.717L-4.616,46.427L-4.528,46.115L-4.367,45.553L-4.302,45.33L-4.272,45.23L-4.138,44.837L-4.043,44.611L-4.136,44.431L-4.277,44.116L-4.379,43.869L-4.512,43.449L-4.559,43.271L-4.578,43.209L-4.629,43.026L-4.678,42.827L-4.724,42.618L-4.768,42.379L-4.798,42.175L-4.8,42.164L-4.838,41.99L-4.922,41.607L-4.969,41.391L-5.017,41.164L-5.066,40.922L-5.112,40.68L-5.167,40.383L-5.218,40.098L-5.267,39.814L-5.316,39.532L-5.364,39.25L-5.411,38.965L-5.501,38.41L-5.588,37.854L-5.672,37.303L-5.753,36.756L-5.832,36.212L-5.902,35.729L-5.97,35.246L-6.037,34.764L-6.103,34.282L-6.167,33.802L-6.231,33.322L-6.294,32.842L-6.356,32.362L-6.477,31.41L-6.596,30.458L-6.713,29.51L-6.829,28.565L-7.057,26.686L-7.172,25.752L-7.287,24.821L-7.404,23.894L-7.522,22.968L-7.582,22.509L-7.643,22.05L-7.704,21.592L-7.767,21.131L-7.878,20.32L-7.933,19.92L-7.989,19.524L-8.045,19.133L-8.102,18.748L-8.161,18.368L-8.222,17.988L-8.251,17.809L-8.282,17.626L-8.314,17.445L-8.346,17.266L-8.379,17.088L-8.412,16.912L-8.445,16.738L-8.48,16.566L-8.514,16.396L-8.55,16.229L-8.586,16.063L-8.623,15.899L-8.66,15.738L-8.698,15.579L-8.737,15.422L-8.765,15.313L-8.767,15.307L-8.806,15.187L-8.861,15.021L-8.928,14.814L-8.97,14.683L-9.012,14.545L-9.057,14.396L-9.103,14.235L-9.151,14.062L-9.198,13.877L-9.246,13.679L-9.292,13.468L-9.337,13.241L-9.368,13.063L-9.559,12.864L-9.827,12.543L-10.073,12.204L-10.294,11.848L-10.489,11.479L-10.659,11.096L-10.801,10.703L-10.916,10.3L-11.002,9.891L-11.059,9.476L-11.088,9.059L-11.087,8.641L-11.057,8.223L-10.999,7.809L-10.911,7.4L-10.795,6.998L-10.652,6.605L-10.481,6.223L-10.284,5.854L-10.062,5.499L-9.816,5.161L-9.707,5.032L-9.851,4.91L-9.857,4.904L-10.107,4.663L-10.342,4.409L-10.563,4.142L-10.767,3.862L-10.769,3.86L-10.988,3.516L-11.184,3.159L-11.355,2.789L-11.5,2.409L-11.619,2.019L-11.62,2.017L-11.712,1.622L-11.777,1.221L-11.815,0.816L-11.826,0.41L-11.809,0.004L-11.808,-0.004L-11.78,-0.286L-11.739,-0.567L-11.684,-0.845L-11.683,-0.853L-11.607,-1.159L-11.514,-1.461L-11.406,-1.758L-11.404,-1.764L-11.273,-2.071L-11.125,-2.371L-10.96,-2.662L-10.957,-2.668L-10.777,-2.948L-10.581,-3.219L-10.371,-3.478L-10.367,-3.482L-10.157,-3.715L-9.935,-3.936L-9.701,-4.145L-9.696,-4.149L-9.367,-4.41L-9.248,-4.492L-9.05,-4.646L-9.029,-4.661L-8.778,-4.836L-8.519,-4.998L-8.498,-5.011L-8.235,-5.158L-7.964,-5.291L-7.942,-5.301L-7.676,-5.416L-7.405,-5.519L-7.382,-5.527L-7.123,-5.611L-6.86,-5.683L-6.593,-5.75L-6.096,-5.831L-5.641,-5.87L-5.233,-5.878L-4.871,-5.863L-4.552,-5.833L-4.275,-5.794L-4.035,-5.751L-3.796,-5.7L-3.741,-5.686L-3.576,-5.677L-3.311,-5.66L-3.05,-5.643L-2.788,-5.625L-2.286,-5.588L-1.792,-5.55L-1.31,-5.512L-0.841,-5.475L-0.385,-5.44L-0.293,-5.434L-0.204,-5.428L0.015,-5.415L0.517,-5.388L0.985,-5.361L1.456,-5.331L1.926,-5.298L2.393,-5.264L2.859,-5.226L3.324,-5.187L3.787,-5.145L4.248,-5.101L4.708,-5.055L5.167,-5.007L5.624,-4.956L6.08,-4.904L6.535,-4.849L6.989,-4.793L7.442,-4.735L7.894,-4.675L8.345,-4.613L8.795,-4.55L9.245,-4.484L9.694,-4.418L10.142,-4.349L10.589,-4.279L11.036,-4.208L11.483,-4.135L11.929,-4.061L12.375,-3.985L12.82,-3.908L13.266,-3.83L13.711,-3.751L14.157,-3.671L14.602,-3.589L15.063,-3.503L15.251,-3.467L15.45,-3.426L15.644,-3.384L15.832,-3.341L16.015,-3.297L16.194,-3.253L16.367,-3.208L16.535,-3.164L16.698,-3.119L16.862,-3.074L17.155,-2.99L17.438,-2.907L17.701,-2.829L17.946,-2.756L18.172,-2.69L18.388,-2.628L18.479,-2.602L18.572,-2.577L18.659,-2.554L18.742,-2.532L18.821,-2.513L18.895,-2.495L18.964,-2.479L19.029,-2.464L19.089,-2.452L19.147,-2.441L19.166,-2.437L19.188,-2.433L19.212,-2.429L19.239,-2.425L19.268,-2.421L19.299,-2.417L19.333,-2.413L19.368,-2.409L19.406,-2.406L19.434,-2.403L19.532,-2.395L19.626,-2.389L19.727,-2.384L19.835,-2.38L19.951,-2.377L20.073,-2.376L20.202,-2.375L20.337,-2.376L20.478,-2.378L20.625,-2.381L20.777,-2.385L20.935,-2.39L21.094,-2.396L21.441,-2.411L22.181,-2.445L22.572,-2.462L22.782,-2.47L22.992,-2.477L23.207,-2.483L23.427,-2.488L23.652,-2.491L23.861,-2.492L24.584,-2.494L25.286,-2.498L25.987,-2.504L26.688,-2.514L27.389,-2.525L28.09,-2.539L28.792,-2.556L29.494,-2.574L30.196,-2.595L30.9,-2.617L31.605,-2.642L32.311,-2.669L33.019,-2.697L33.728,-2.727L34.44,-2.759L35.16,-2.792L35.99,-2.831L36.826,-2.867L37.661,-2.902L38.496,-2.934L39.33,-2.964L40.163,-2.992L40.996,-3.019L41.828,-3.043L42.66,-3.066L43.491,-3.087L44.322,-3.106L45.152,-3.124L45.981,-3.14L46.811,-3.155L47.639,-3.168L48.467,-3.18L49.295,-3.191L50.122,-3.201L50.949,-3.21L51.776,-3.217L52.602,-3.224L53.428,-3.229L54.253,-3.234L55.079,-3.238L56.727,-3.244L58.376,-3.248L60.023,-3.25L61.668,-3.25L62.086,-3.236L62.503,-3.192ZM57.488,59.766L57.529,59.918L57.61,60.329L57.661,60.745L57.611,60.184L57.492,59.763L57.488,59.766ZM-11.336,1.752L-11.325,1.792L-11.346,1.707L-11.336,1.752ZM-11.427,1.338L-11.419,1.374L-11.431,1.3L-11.427,1.338ZM-11.516,0.61L-11.502,0.722L-11.514,0.562L-11.516,0.61ZM-5.408,-5.587L-5.422,-5.587L-5.429,-5.587L-5.408,-5.587Z" style="fill:white;"/>
    </g>
</svg>
