<?xml version="1.0" encoding="UTF-8" standalone="no"?>
<!DOCTYPE svg PUBLIC "-//W3C//DTD SVG 1.1//EN" "http://www.w3.org/Graphics/SVG/1.1/DTD/svg11.dtd">
<svg width="100%" height="100%" viewBox="0 0 1024 1024" version="1.1" xmlns="http://www.w3.org/2000/svg" xmlns:xlink="http://www.w3.org/1999/xlink" xml:space="preserve" xmlns:serif="http://www.serif.com/" style="fill-rule:evenodd;clip-rule:evenodd;stroke-linejoin:round;stroke-miterlimit:2;">
    <clipPath id="_clip1">
        <path d="M511.674,40.921C244.755,40.921 28.341,257.335 28.341,524.254C28.341,737.836 166.816,918.967 358.892,982.865C383.053,987.29 391.873,972.363 391.873,959.618C391.873,948.113 391.431,909.999 391.195,869.643C256.791,898.848 228.382,812.648 228.382,812.648C206.376,756.834 174.721,741.966 174.721,741.966C130.795,711.993 178.053,712.583 178.053,712.583C226.581,715.946 252.13,762.38 252.13,762.38C295.26,836.249 365.293,814.89 392.787,802.5C397.181,771.348 409.689,749.99 423.468,737.954C316.175,725.741 203.308,684.263 203.308,499.06C203.308,446.254 222.159,403.184 253.015,369.347C248.089,357.075 231.45,307.898 257.794,241.376C257.794,241.376 298.328,228.395 390.722,290.936C429.249,280.169 470.579,274.859 511.673,274.681C552.737,274.859 594.096,280.227 632.684,290.995C724.902,228.395 765.494,241.434 765.494,241.434C791.927,308.016 775.288,357.134 770.332,369.347C801.307,403.184 820.011,446.255 820.011,499.06C820.011,684.735 706.966,725.622 599.29,737.6C616.696,752.586 632.095,781.968 632.095,827.045C632.095,891.651 631.445,943.748 631.445,959.678C631.445,972.54 640.236,987.585 664.721,982.865C856.651,918.849 995.007,737.718 995.007,524.254C995.007,257.335 778.593,40.921 511.674,40.921Z" clip-rule="nonzero"/>
    </clipPath>
    <g clip-path="url(#_clip1)">
        <path d="M430.263,-96.236L432.246,-96.233L434.221,-96.226L436.188,-96.216L438.147,-96.202L440.098,-96.186L442.039,-96.167L443.973,-96.146L445.899,-96.121L447.815,-96.095L449.724,-96.066L451.625,-96.035L453.516,-96.002L455.399,-95.967L457.274,-95.93L459.141,-95.891L460.998,-95.85L462.847,-95.808L464.688,-95.765L466.52,-95.72L468.343,-95.675L470.158,-95.628L471.964,-95.58L473.761,-95.531L475.55,-95.481L477.329,-95.431L479.116,-95.379L482.611,-95.276L486.09,-95.172L489.533,-95.066L492.935,-94.961L499.648,-94.754L502.938,-94.654L506.196,-94.556L509.437,-94.462L511.015,-94.417L512.655,-94.371L514.86,-94.309L517.119,-94.244L519.378,-94.177L521.636,-94.109L523.896,-94.038L526.155,-93.967L528.415,-93.893L530.675,-93.818L532.935,-93.741L535.195,-93.662L537.456,-93.582L539.717,-93.5L541.978,-93.416L544.239,-93.331L546.501,-93.244L548.763,-93.155L551.025,-93.065L553.287,-92.972L555.549,-92.878L557.812,-92.783L560.075,-92.685L562.338,-92.586L564.601,-92.485L566.865,-92.383L569.129,-92.278L571.392,-92.172L573.657,-92.064L575.921,-91.955L578.185,-91.844L580.45,-91.73L582.714,-91.616L584.979,-91.499L587.244,-91.381L589.51,-91.261L591.775,-91.139L594.041,-91.015L596.306,-90.89L598.572,-90.763L600.838,-90.634L603.104,-90.503L605.371,-90.37L607.637,-90.236L609.904,-90.1L612.17,-89.962L614.437,-89.823L616.704,-89.681L618.971,-89.538L621.238,-89.393L623.506,-89.246L625.773,-89.097L628.041,-88.947L630.308,-88.795L632.576,-88.64L634.844,-88.484L637.112,-88.327L639.38,-88.167L641.648,-88.006L643.916,-87.842L646.184,-87.677L648.453,-87.51L650.721,-87.342L652.99,-87.171L655.258,-86.999L657.527,-86.824L659.796,-86.648L662.064,-86.47L664.333,-86.29L666.602,-86.109L668.871,-85.925L671.14,-85.74L673.409,-85.552L675.678,-85.363L677.947,-85.172L680.217,-84.979L682.486,-84.784L684.755,-84.588L687.024,-84.389L689.293,-84.189L691.563,-83.986L693.832,-83.782L696.101,-83.576L698.37,-83.368L700.64,-83.158L702.909,-82.946L705.178,-82.732L707.448,-82.517L709.717,-82.299L711.986,-82.079L714.255,-81.858L716.525,-81.635L718.794,-81.409L721.063,-81.182L723.332,-80.953L725.601,-80.722L727.87,-80.489L730.139,-80.254L732.408,-80.017L734.678,-79.778L736.947,-79.537L739.215,-79.294L741.484,-79.05L743.753,-78.803L746.022,-78.554L748.291,-78.303L750.559,-78.051L752.827,-77.796L755.096,-77.54L757.364,-77.281L759.632,-77.021L761.901,-76.758L764.169,-76.494L766.437,-76.227L768.705,-75.959L770.973,-75.688L773.24,-75.416L775.508,-75.141L777.775,-74.865L780.043,-74.586L782.31,-74.306L784.578,-74.023L786.844,-73.739L789.111,-73.452L791.378,-73.164L793.645,-72.873L795.912,-72.58L798.178,-72.286L800.444,-71.989L802.745,-71.685L804.157,-71.498L805.597,-71.303L807.029,-71.107L808.453,-70.91L809.872,-70.712L811.283,-70.512L812.684,-70.311L814.08,-70.11L815.468,-69.907L816.848,-69.703L818.221,-69.499L819.588,-69.294L820.946,-69.088L822.297,-68.882L823.641,-68.675L824.978,-68.468L826.306,-68.26L827.628,-68.053L828.943,-67.845L830.25,-67.637L831.55,-67.429L832.843,-67.221L834.128,-67.013L835.406,-66.805L836.677,-66.597L837.965,-66.386L840.443,-65.977L842.92,-65.566L845.369,-65.157L847.788,-64.751L850.188,-64.347L854.861,-63.557L859.463,-62.779L861.706,-62.401L863.926,-62.028L866.118,-61.661L868.281,-61.3L870.441,-60.942L871.476,-60.772L872.526,-60.599L873.568,-60.429L874.605,-60.26L875.633,-60.094L876.654,-59.93L877.668,-59.767L878.676,-59.607L879.677,-59.448L880.67,-59.292L881.656,-59.138L882.635,-58.986L883.606,-58.836L884.571,-58.689L885.529,-58.544L886.48,-58.401L887.423,-58.26L888.36,-58.122L889.289,-57.986L890.211,-57.852L891.126,-57.721L892.034,-57.593L892.936,-57.466L893.83,-57.342L894.716,-57.221L895.596,-57.102L896.469,-56.986L897.334,-56.872L898.192,-56.761L899.044,-56.652L899.889,-56.545L900.725,-56.442L901.555,-56.341L902.378,-56.242L903.194,-56.146L904.003,-56.052L904.804,-55.962L905.599,-55.873L906.387,-55.787L907.167,-55.704L907.94,-55.624L908.706,-55.546L909.466,-55.471L910.218,-55.398L911.016,-55.323L911.335,-55.293L911.702,-55.26L912.068,-55.227L912.432,-55.195L912.796,-55.163L913.157,-55.132L913.516,-55.102L913.873,-55.072L914.23,-55.043L914.585,-55.015L914.938,-54.987L915.287,-54.96L915.635,-54.934L915.983,-54.908L916.328,-54.883L916.673,-54.858L917.014,-54.834L917.354,-54.811L917.693,-54.788L918.03,-54.766L918.364,-54.744L918.698,-54.723L919.03,-54.703L919.359,-54.684L919.688,-54.665L920.015,-54.646L920.339,-54.628L920.661,-54.611L920.983,-54.594L921.303,-54.578L921.62,-54.563L921.937,-54.548L922.252,-54.534L922.563,-54.52L922.875,-54.507L923.185,-54.495L923.493,-54.483L923.799,-54.472L924.102,-54.461L924.405,-54.451L924.707,-54.441L925.006,-54.432L925.304,-54.424L925.6,-54.416L925.894,-54.409L926.188,-54.402L926.479,-54.396L926.768,-54.39L927.056,-54.385L927.343,-54.381L927.628,-54.377L927.909,-54.373L928.192,-54.37L928.472,-54.368L928.749,-54.366L929.026,-54.365L929.302,-54.364L929.732,-54.364L942.362,-53.868L954.917,-52.406L967.323,-49.988L979.508,-46.627L991.4,-42.343L1002.93,-37.161L1014.03,-31.113L1024.63,-24.232L1034.68,-16.56L1044.1,-8.141L1052.86,0.974L1060.89,10.734L1068.15,21.079L1074.6,31.95L1080.2,43.283L1084.92,55.011L1088.72,67.065L1091.59,79.375L1093.5,91.869L1094.46,104.473L1094.46,107.507L1094.66,107.628L1096.38,108.67L1098.18,109.781L1100.02,110.957L1101.92,112.206L1103.9,113.543L1105.96,114.983L1108.06,116.494L1110.17,118.064L1112.4,119.784L1114.71,121.622L1117.07,123.567L1119.51,125.659L1122,127.885L1124.53,130.233L1127.18,132.8L1129.86,135.523L1132.62,138.457L1135.41,141.568L1138.22,144.867L1141.09,148.425L1143.98,152.23L1146.92,156.328L1149.78,160.597L1152.68,165.237L1155.52,170.137L1158.26,175.267L1160.97,180.806L1163.55,186.619L1165.95,192.667L1168.2,199.028L1170.24,205.708L1172.03,212.582L1173.55,219.618L1174.78,226.881L1175.7,234.342L1176.3,241.962L1176.53,249.586L1176.43,257.163L1175.97,264.759L1175.16,272.316L1174.04,279.695L1172.62,286.857L1170.88,293.961L1168.89,300.771L1166.67,307.361L1164.26,313.634L1161.71,319.571L1158.37,326.577L1153.54,335.434L1147.86,344.356L1142.34,351.966L1137.05,358.511L1131.91,364.265L1127.07,369.234L1122.64,373.429L1118.43,377.154L1114.45,380.447L1110.83,383.267L1107.4,385.802L1104.23,388.029L1103.48,388.525L1103.6,388.57L1104.31,388.851L1105.02,389.134L1105.74,389.421L1106.47,389.713L1107.19,390.007L1107.93,390.303L1108.68,390.611L1109.42,390.913L1110.18,391.223L1110.94,391.54L1111.7,391.856L1112.48,392.179L1113.26,392.506L1114.04,392.835L1114.82,393.169L1115.61,393.507L1116.41,393.85L1117.21,394.197L1118.03,394.55L1118.84,394.908L1119.66,395.267L1120.49,395.634L1121.33,396.007L1122.15,396.378L1123,396.758L1123.84,397.143L1124.69,397.53L1125.55,397.927L1126.41,398.325L1127.29,398.732L1128.16,399.142L1129.04,399.558L1129.93,399.983L1130.81,400.403L1131.7,400.837L1132.62,401.281L1133.52,401.723L1134.43,402.172L1135.34,402.628L1136.27,403.09L1137.19,403.559L1138.12,404.031L1139.06,404.514L1140.01,405.004L1140.95,405.498L1141.91,406.002L1142.87,406.51L1143.83,407.022L1144.76,407.526L1145.32,407.612L1146.34,407.775L1147.36,407.943L1148.38,408.115L1149.4,408.294L1150.38,408.469L1151.34,408.647L1152.34,408.836L1153.3,409.023L1154.21,409.206L1155.15,409.396L1156.08,409.59L1156.98,409.781L1157.86,409.974L1158.74,410.168L1159.59,410.361L1160.45,410.558L1161.29,410.756L1162.12,410.954L1162.93,411.15L1163.69,411.339L1164.62,411.569L1166.02,411.928L1167.49,412.317L1168.9,412.698L1170.26,413.074L1171.56,413.442L1172.81,413.802L1174,414.154L1175.14,414.494L1176.22,414.824L1177.24,415.14L1178.21,415.445L1179.13,415.737L1179.98,416.008L1180.79,416.27L1181.55,416.517L1182.24,416.742L1182.93,416.97L1183.99,417.324L1185.63,417.87L1185.96,417.982L1186.09,418.017L1186.91,418.25L1187.74,418.488L1188.59,418.733L1189.44,418.983L1190.29,419.235L1191.15,419.491L1192,419.75L1192.87,420.013L1193.75,420.285L1194.62,420.557L1195.49,420.832L1196.36,421.108L1197.24,421.39L1198.13,421.68L1198.99,421.964L1199.87,422.255L1200.76,422.552L1201.63,422.846L1202.49,423.143L1203.35,423.44L1204.22,423.741L1205.08,424.047L1205.94,424.35L1206.78,424.654L1207.62,424.957L1208.46,425.264L1209.3,425.573L1210.12,425.877L1210.93,426.181L1212.58,426.805L1215.4,427.911L1218.51,429.213L1221.1,430.351L1223.37,431.391L1225.36,432.333L1227.26,433.263L1229.07,434.176L1230.77,435.055L1232.45,435.949L1234.15,436.873L1235.92,437.866L1237.74,438.911L1239.69,440.067L1241.73,441.31L1243.9,442.673L1246.44,444.327L1249.21,446.212L1251.86,448.084L1254,449.66L1255.98,451.162L1258.14,452.851L1260.34,454.635L1262.85,456.733L1265.67,459.211L1268.71,461.999L1271.99,465.166L1275.89,469.166L1280.41,474.167L1285.22,479.975L1290.63,487.183L1296.78,496.498L1299.8,501.919L1303.3,508.549L1306.5,515.331L1306.51,515.354L1309.87,523.514L1312.8,531.843L1312.8,531.865L1315.43,540.933L1317.54,550.136L1318.58,555.368L1320.16,567.35L1320.5,574.104L1320.71,582.449L1320.49,590.794L1320.49,590.804L1319.91,598.568L1318.96,606.297L1318.96,606.306L1317.41,615.163L1315.39,623.923L1315.38,623.932L1313.02,632.125L1310.24,640.185L1310.24,640.193L1306.78,648.723L1302.84,657.047L1302.84,657.055L1298.61,664.859L1293.97,672.424L1293.96,672.432L1289.02,679.592L1283.72,686.483L1283.71,686.49L1278.91,692.131L1273.86,697.551L1273.86,697.558L1268,703.275L1261.87,708.695L1256.67,713.066L1245.8,720.783L1235.53,726.904L1226.12,731.717L1215.3,736.413L1209.03,738.561L1201.86,740.831L1194.61,742.773L1189.69,743.97L1192.68,746.434L1196.55,749.843L1200.63,753.651L1205.61,758.66L1211.42,765.101L1218.01,773.298L1221.34,778.089L1225.64,784.61L1229.63,791.329L1229.64,791.344L1234.28,800.216L1238.37,809.353L1238.38,809.367L1242.78,821.334L1245.51,831.019L1252.35,836.25L1261.77,844.673L1270.52,853.794L1278.55,863.557L1285.81,873.906L1292.25,884.781L1297.84,896.117L1302.55,907.847L1306.35,919.904L1309.21,932.215L1311.12,944.71L1312.07,957.314L1312.05,969.954L1311.06,982.555L1309.11,995.044L1306.22,1007.35L1302.38,1019.39L1297.64,1031.11L1292.02,1042.43L1285.54,1053.28L1278.25,1063.61L1270.2,1073.35L1261.42,1082.44L1251.97,1090.84L1241.91,1098.49L1231.29,1105.34L1220.17,1111.37L1208.63,1116.52L1196.73,1120.77L1184.54,1124.11L1172.12,1126.49L1159.57,1127.92L1146.93,1128.39L1145.7,1128.39L1144.24,1128.38L1142.78,1128.37L1141.33,1128.36L1139.88,1128.34L1138.45,1128.32L1137.02,1128.29L1135.59,1128.26L1134.17,1128.23L1132.77,1128.19L1131.37,1128.15L1129.98,1128.11L1128.59,1128.06L1127.21,1128.01L1125.84,1127.96L1124.47,1127.9L1123.12,1127.84L1121.77,1127.78L1120.43,1127.72L1119.1,1127.65L1117.77,1127.59L1116.45,1127.51L1115.14,1127.44L1113.84,1127.37L1112.54,1127.29L1111.25,1127.21L1109.96,1127.13L1108.69,1127.05L1107.42,1126.96L1106.16,1126.88L1104.91,1126.79L1103.67,1126.7L1102.43,1126.61L1101.2,1126.52L1099.97,1126.42L1098.76,1126.33L1097.56,1126.23L1096.35,1126.14L1095.16,1126.04L1093.97,1125.94L1092.79,1125.84L1091.63,1125.74L1090.46,1125.64L1089.3,1125.54L1088.16,1125.44L1087.02,1125.34L1085.88,1125.23L1084.75,1125.13L1083.63,1125.03L1082.49,1124.92L1080.33,1124.72L1078.15,1124.51L1076.01,1124.3L1073.89,1124.09L1071.81,1123.89L1069.75,1123.68L1067.72,1123.48L1063.78,1123.09L1059.9,1122.7L1058.03,1122.51L1056.18,1122.33L1054.36,1122.15L1052.56,1121.98L1050.8,1121.81L1049.03,1121.64L1048.2,1121.56L1047.35,1121.48L1046.5,1121.4L1045.67,1121.33L1044.85,1121.26L1044.03,1121.18L1043.21,1121.11L1042.4,1121.04L1041.6,1120.97L1040.81,1120.9L1040.03,1120.84L1039.25,1120.77L1038.48,1120.71L1037.72,1120.65L1036.96,1120.59L1036.21,1120.53L1035.47,1120.48L1034.74,1120.42L1034.01,1120.37L1033.29,1120.32L1032.58,1120.27L1031.88,1120.22L1031.18,1120.17L1030.49,1120.13L1029.8,1120.09L1029.13,1120.05L1028.45,1120.01L1027.8,1119.97L1027.14,1119.93L1026.5,1119.9L1025.85,1119.87L1025.22,1119.84L1024.6,1119.81L1023.97,1119.78L1023.37,1119.76L1022.76,1119.73L1022.17,1119.71L1021.57,1119.69L1020.99,1119.67L1020.42,1119.65L1019.85,1119.64L1019.28,1119.62L1018.73,1119.61L1018.15,1119.6L1017.5,1119.59L1016.71,1119.57L1015.83,1119.56L1014.87,1119.55L1013.82,1119.54L1012.7,1119.52L1011.51,1119.51L1010.26,1119.5L1008.94,1119.49L1007.57,1119.48L1006.15,1119.46L1004.67,1119.45L1003.15,1119.44L1001.6,1119.43L998.32,1119.42L994.913,1119.4L991.376,1119.39L987.732,1119.38L983.998,1119.37L980.191,1119.36L976.331,1119.36L972.434,1119.35L968.517,1119.35L964.6,1119.35L960.702,1119.36L956.836,1119.36L953.022,1119.37L949.281,1119.38L945.626,1119.39L942.079,1119.4L938.66,1119.42L935.365,1119.44L933.805,1119.44L932.274,1119.45L930.79,1119.47L929.353,1119.48L927.969,1119.49L926.645,1119.5L925.381,1119.51L924.177,1119.52L923.041,1119.54L921.982,1119.55L921.001,1119.56L920.101,1119.58L919.293,1119.59L918.603,1119.6L918.39,1119.6L918.187,1119.61L917.984,1119.61L917.782,1119.62L917.572,1119.62L917.362,1119.63L917.153,1119.64L916.945,1119.64L916.737,1119.65L916.521,1119.66L916.296,1119.67L916.082,1119.68L915.867,1119.69L915.644,1119.7L915.414,1119.71L915.192,1119.72L914.97,1119.73L914.732,1119.75L914.503,1119.76L914.274,1119.77L914.037,1119.79L913.801,1119.8L913.555,1119.82L913.32,1119.83L913.075,1119.85L912.831,1119.87L912.588,1119.88L912.336,1119.9L912.085,1119.92L911.825,1119.94L911.573,1119.96L911.323,1119.98L911.064,1120.01L910.796,1120.03L910.538,1120.05L910.27,1120.07L910.004,1120.1L909.737,1120.12L909.463,1120.15L909.188,1120.17L908.913,1120.2L908.639,1120.23L908.355,1120.26L908.073,1120.29L907.79,1120.32L907.508,1120.35L907.209,1120.38L906.918,1120.41L906.637,1120.44L906.337,1120.48L906.038,1120.51L905.74,1120.54L905.44,1120.58L905.142,1120.61L904.826,1120.65L904.52,1120.69L904.212,1120.73L903.896,1120.77L903.581,1120.81L903.265,1120.85L902.95,1120.89L902.677,1120.92L901.97,1121.02L901.314,1121.1L900.645,1121.2L899.971,1121.29L899.285,1121.39L898.582,1121.49L897.879,1121.59L897.167,1121.7L896.441,1121.81L895.712,1121.92L894.969,1122.04L894.218,1122.16L893.453,1122.28L892.684,1122.41L891.906,1122.54L891.11,1122.67L890.314,1122.8L889.509,1122.94L888.687,1123.08L887.86,1123.23L887.023,1123.37L886.174,1123.52L885.32,1123.68L884.452,1123.83L883.575,1123.99L882.689,1124.15L881.794,1124.32L880.89,1124.48L879.973,1124.65L879.045,1124.83L878.113,1125L877.173,1125.18L876.214,1125.36L875.249,1125.55L874.299,1125.73L872.293,1126.11L870.275,1126.5L868.226,1126.9L863.962,1127.73L859.596,1128.57L857.328,1129.01L855.027,1129.45L852.715,1129.9L851.505,1130.13L850.306,1130.36L849.102,1130.59L847.889,1130.81L846.66,1131.04L845.423,1131.28L844.175,1131.51L842.918,1131.74L841.651,1131.97L840.374,1132.2L839.083,1132.44L837.782,1132.67L836.477,1132.9L835.156,1133.14L833.821,1133.37L832.482,1133.6L831.131,1133.84L829.771,1134.07L828.397,1134.3L827.013,1134.53L825.619,1134.76L824.215,1134.99L822.801,1135.21L821.378,1135.44L819.944,1135.66L818.491,1135.89L817.038,1136.11L815.57,1136.33L814.092,1136.55L812.604,1136.76L811.102,1136.98L809.599,1137.19L808.076,1137.4L806.6,1137.6L805.771,1137.71L804.998,1137.81L804.233,1137.91L803.458,1138.01L802.675,1138.11L801.883,1138.21L801.101,1138.3L800.317,1138.4L799.531,1138.5L798.738,1138.59L797.937,1138.69L797.134,1138.78L796.33,1138.87L795.536,1138.96L794.732,1139.05L793.596,1139.18L792.286,1139.32L790.695,1139.47L789.187,1139.6L787.664,1139.72L786.163,1139.82L784.733,1139.91L783.286,1139.99L781.95,1140.05L780.638,1140.1L779.262,1140.14L777.992,1140.17L776.744,1140.19L775.515,1140.21L774.347,1140.21L773.154,1140.21L771.742,1140.19L769.786,1140.16L767.667,1140.09L765.602,1140.01L763.627,1139.91L761.754,1139.79L759.922,1139.66L758.166,1139.52L756.479,1139.36L754.841,1139.2L753.268,1139.04L751.734,1138.86L750.259,1138.68L748.822,1138.49L747.435,1138.31L746.094,1138.11L744.785,1137.92L743.524,1137.72L742.283,1137.52L741.069,1137.32L739.896,1137.12L738.771,1136.92L737.653,1136.71L736.571,1136.51L735.518,1136.31L734.465,1136.1L733.463,1135.9L732.485,1135.69L731.523,1135.49L730.559,1135.29L729.635,1135.08L728.737,1134.88L727.847,1134.68L726.982,1134.49L726.112,1134.28L725.28,1134.09L724.472,1133.89L723.654,1133.7L722.856,1133.5L722.078,1133.31L721.321,1133.12L720.573,1132.93L719.83,1132.74L719.104,1132.55L718.395,1132.36L717.694,1132.18L716.922,1131.97L715.669,1131.64L714.371,1131.28L713.109,1130.93L711.896,1130.59L710.729,1130.26L709.6,1129.94L708.506,1129.62L707.442,1129.31L706.428,1129.01L705.465,1128.73L704.53,1128.45L703.627,1128.18L702.747,1127.91L701.221,1127.45L701.027,1127.39L701,1127.39L700.661,1127.34L700.321,1127.28L699.98,1127.23L699.636,1127.18L699.282,1127.13L698.918,1127.08L698.551,1127.02L698.19,1126.97L697.813,1126.92L697.427,1126.87L697.045,1126.82L696.661,1126.76L696.26,1126.71L695.859,1126.66L695.456,1126.6L695.043,1126.55L694.635,1126.5L694.218,1126.44L693.786,1126.39L693.359,1126.34L692.977,1126.29L692.047,1126.17L691.15,1126.07L690.234,1125.96L689.302,1125.85L688.354,1125.75L687.39,1125.64L686.404,1125.53L685.407,1125.42L684.399,1125.32L683.369,1125.21L682.321,1125.1L681.263,1125L680.188,1124.89L679.099,1124.78L677.997,1124.67L676.879,1124.56L675.751,1124.45L674.603,1124.35L673.443,1124.24L672.293,1124.13L669.882,1123.9L667.443,1123.68L662.42,1123.21L659.829,1122.97L657.219,1122.73L655.859,1122.6L654.509,1122.47L653.148,1122.34L651.768,1122.21L650.38,1122.07L648.981,1121.94L647.567,1121.8L646.145,1121.65L644.704,1121.5L643.25,1121.35L641.785,1121.2L640.379,1121.05L618.607,1118.69L607.767,1117.51L596.935,1116.34L586.105,1115.17L580.702,1114.59L575.296,1114.01L569.892,1113.43L564.49,1112.85L559.091,1112.27L553.695,1111.7L548.299,1111.12L542.906,1110.55L537.517,1109.98L532.129,1109.41L526.744,1108.84L521.361,1108.28L515.981,1107.72L510.603,1107.16L505.228,1106.6L499.856,1106.04L494.484,1105.49L489.117,1104.94L483.753,1104.39L478.391,1103.85L473.031,1103.31L467.662,1102.77L464.995,1102.5L462.32,1102.24L459.643,1101.97L456.967,1101.7L454.294,1101.44L451.619,1101.18L448.945,1100.91L446.274,1100.65L443.6,1100.39L440.929,1100.13L440.614,1100.1L440.499,1100.11L439.532,1100.19L438.579,1100.27L437.605,1100.34L436.625,1100.41L435.641,1100.48L434.615,1100.54L433.603,1100.6L432.602,1100.65L431.56,1100.7L430.494,1100.75L429.441,1100.79L428.362,1100.83L427.278,1100.86L426.186,1100.89L425.088,1100.91L423.965,1100.93L422.815,1100.94L421.657,1100.94L420.493,1100.94L419.32,1100.94L418.139,1100.92L416.931,1100.9L415.695,1100.87L414.469,1100.83L413.391,1100.8L412.362,1100.75L411.509,1100.72L410.656,1100.68L409.812,1100.64L408.969,1100.6L408.125,1100.56L407.282,1100.52L406.439,1100.47L405.605,1100.43L404.762,1100.38L403.929,1100.33L403.105,1100.28L402.271,1100.23L401.448,1100.17L400.624,1100.12L399.801,1100.06L398.986,1100.01L398.164,1099.95L397.34,1099.89L396.536,1099.83L395.723,1099.76L394.909,1099.7L394.106,1099.64L393.302,1099.57L392.498,1099.5L391.695,1099.43L390.901,1099.37L390.107,1099.3L389.304,1099.22L388.511,1099.15L387.726,1099.08L386.942,1099L386.158,1098.93L385.375,1098.85L384.592,1098.77L383.808,1098.69L383.034,1098.61L382.261,1098.53L381.497,1098.45L380.723,1098.37L379.949,1098.28L379.186,1098.2L378.422,1098.11L377.607,1098.02L376.151,1097.85L374.643,1097.67L373.141,1097.49L371.653,1097.31L370.171,1097.12L368.698,1096.93L367.24,1096.74L365.782,1096.55L364.334,1096.35L362.9,1096.15L361.472,1095.95L360.049,1095.74L358.64,1095.54L357.236,1095.33L355.837,1095.12L354.453,1094.91L353.078,1094.69L351.708,1094.48L350.348,1094.27L348.998,1094.05L347.652,1093.83L346.316,1093.61L344.99,1093.39L343.673,1093.17L342.361,1092.95L341.059,1092.73L339.771,1092.5L338.483,1092.28L337.204,1092.06L335.94,1091.83L334.68,1091.61L333.431,1091.38L332.185,1091.16L330.949,1090.93L329.728,1090.71L328.506,1090.49L327.293,1090.26L326.095,1090.04L325.068,1089.85L324.144,1089.78L321.506,1089.57L318.872,1089.36L316.238,1089.16L313.604,1088.96L310.972,1088.76L308.34,1088.56L305.71,1088.36L303.08,1088.16L300.45,1087.97L297.823,1087.78L295.712,1087.62L293.603,1087.47L291.489,1087.32L289.378,1087.17L287.266,1087.02L285.154,1086.87L283.04,1086.73L280.924,1086.58L278.807,1086.44L276.691,1086.3L274.574,1086.15L272.455,1086.02L270.336,1085.88L268.217,1085.74L266.093,1085.6L263.971,1085.47L261.851,1085.33L259.727,1085.2L257.601,1085.07L255.476,1084.94L253.352,1084.81L251.223,1084.68L249.096,1084.55L246.969,1084.43L244.838,1084.3L242.708,1084.18L240.577,1084.06L238.445,1083.93L236.313,1083.82L234.179,1083.69L232.045,1083.58L229.908,1083.46L227.774,1083.34L225.637,1083.23L223.5,1083.11L221.361,1083L219.219,1082.89L217.082,1082.78L214.941,1082.67L212.799,1082.56L210.657,1082.45L208.513,1082.34L206.369,1082.24L204.223,1082.13L202.078,1082.02L199.932,1081.92L197.783,1081.82L195.636,1081.72L193.487,1081.62L191.338,1081.52L189.187,1081.41L187.035,1081.32L184.884,1081.22L182.73,1081.12L180.576,1081.03L178.42,1080.93L176.266,1080.84L174.11,1080.74L171.953,1080.65L169.797,1080.56L167.636,1080.47L165.477,1080.38L163.316,1080.29L161.155,1080.2L158.996,1080.11L156.833,1080.02L154.667,1079.94L152.518,1079.85L148.174,1079.68L143.84,1079.51L139.503,1079.35L135.164,1079.19L130.821,1079.03L126.475,1078.87L122.125,1078.72L117.774,1078.56L113.418,1078.41L109.06,1078.27L104.699,1078.12L100.335,1077.97L95.967,1077.83L91.596,1077.69L87.223,1077.55L82.847,1077.42L78.467,1077.28L74.086,1077.15L69.7,1077.02L65.311,1076.88L60.921,1076.76L56.527,1076.63L52.129,1076.5L47.73,1076.37L43.327,1076.25L38.92,1076.12L34.512,1076L30.106,1075.88L21.313,1075.63L20.162,1075.6L19.033,1075.57L17.892,1075.55L16.74,1075.52L15.572,1075.49L14.388,1075.47L13.189,1075.44L11.995,1075.42L9.49,1075.37L6.961,1075.32L1.701,1075.23L-1.007,1075.18L-3.757,1075.13L-5.185,1075.1L-6.608,1075.07L-8.046,1075.04L-9.499,1075.01L-10.967,1074.98L-12.451,1074.95L-13.946,1074.91L-15.46,1074.87L-16.989,1074.83L-18.53,1074.79L-20.086,1074.75L-21.656,1074.7L-23.243,1074.65L-24.848,1074.59L-26.46,1074.54L-28.088,1074.48L-29.738,1074.41L-31.396,1074.34L-33.069,1074.27L-34.707,1074.2L-35.601,1074.16L-36.46,1074.12L-37.319,1074.07L-38.178,1074.03L-39.037,1073.99L-39.911,1073.94L-40.785,1073.89L-41.651,1073.84L-42.533,1073.79L-43.422,1073.74L-44.304,1073.69L-45.193,1073.63L-46.089,1073.58L-46.986,1073.52L-47.882,1073.46L-48.786,1073.4L-49.697,1073.34L-50.609,1073.28L-51.528,1073.21L-52.446,1073.14L-53.365,1073.08L-54.291,1073.01L-55.217,1072.93L-56.151,1072.86L-57.092,1072.78L-58.033,1072.7L-58.974,1072.62L-59.922,1072.54L-60.87,1072.46L-61.826,1072.37L-62.789,1072.29L-63.745,1072.2L-64.707,1072.1L-65.678,1072.01L-66.655,1071.91L-67.633,1071.81L-68.61,1071.71L-69.587,1071.61L-70.572,1071.51L-71.564,1071.4L-72.556,1071.29L-73.555,1071.17L-74.561,1071.06L-75.56,1070.94L-76.566,1070.82L-77.579,1070.69L-78.585,1070.57L-79.431,1070.46L-80.347,1070.35L-81.127,1070.25L-81.96,1070.15L-82.819,1070.04L-84.776,1069.81L-86.861,1069.56L-87.994,1069.42L-89.175,1069.28L-90.404,1069.12L-91.685,1068.97L-93.015,1068.8L-94.387,1068.63L-95.817,1068.44L-97.242,1068.25L-98.052,1068.14L-98.815,1068.04L-99.587,1067.93L-100.388,1067.82L-101.198,1067.71L-102.008,1067.6L-102.846,1067.47L-103.685,1067.35L-104.542,1067.22L-105.409,1067.09L-106.285,1066.96L-107.18,1066.82L-108.075,1066.68L-108.998,1066.53L-109.921,1066.38L-110.853,1066.23L-111.814,1066.07L-112.783,1065.9L-113.753,1065.74L-114.731,1065.57L-115.738,1065.38L-116.753,1065.2L-117.769,1065.01L-118.803,1064.82L-119.855,1064.62L-120.907,1064.41L-121.976,1064.2L-123.056,1063.98L-124.152,1063.75L-125.258,1063.52L-126.363,1063.29L-127.458,1063.05L-128.895,1062.73L-129.665,1062.56L-130.388,1062.39L-131.108,1062.23L-131.818,1062.07L-132.526,1061.9L-133.236,1061.74L-133.947,1061.57L-134.662,1061.4L-135.381,1061.23L-136.093,1061.06L-136.825,1060.88L-137.552,1060.7L-138.29,1060.52L-139.056,1060.32L-139.82,1060.13L-140.601,1059.93L-141.402,1059.72L-142.224,1059.5L-143.072,1059.27L-143.93,1059.03L-144.819,1058.79L-145.765,1058.52L-146.731,1058.24L-147.745,1057.94L-148.808,1057.62L-149.934,1057.28L-151.155,1056.9L-152.397,1056.5L-153.726,1056.06L-155.185,1055.57L-156.762,1055.03L-158.436,1054.42L-160.264,1053.75L-162.266,1052.98L-164.476,1052.1L-166.925,1051.09L-169.666,1049.9L-172.743,1048.49L-176.175,1046.84L-180.088,1044.83L-184.663,1042.32L-189.948,1039.18L-195.981,1035.26L-203.149,1030.11L-211.653,1023.21L-219.919,1015.43L-226.672,1008.2L-232.471,1001.26L-238.442,993.279L-244.708,983.618L-250.917,972.328L-253.725,966.03L-256.672,958.988L-259.29,951.817L-259.294,951.807L-261.75,943.918L-263.809,935.916L-263.811,935.906L-265.598,927.06L-266.9,918.13L-266.901,918.12L-267.747,908.545L-268.035,898.938L-268.035,898.928L-267.745,889.014L-266.86,879.135L-266.859,879.126L-265.375,869.283L-263.301,859.547L-263.299,859.539L-260.746,850.287L-257.66,841.199L-257.657,841.19L-254.11,832.44L-250.069,823.906L-250.065,823.898L-246.126,816.619L-241.827,809.547L-241.822,809.539L-237.418,803.033L-232.71,796.744L-228.334,791.181L-224.317,786.887L-225.552,785.786L-234.317,776.68L-242.359,766.929L-249.631,756.592L-256.09,745.728L-261.699,734.401L-266.425,722.679L-270.239,710.629L-273.12,698.322L-275.05,685.831L-276.019,673.229L-276.02,660.59L-275.054,647.988L-273.125,635.497L-270.247,623.19L-266.434,611.139L-261.711,599.416L-256.104,588.088L-249.646,577.223L-242.376,566.884L-234.335,557.132L-225.572,548.024L-216.137,539.614L-206.087,531.95L-195.479,525.079L-184.376,519.039L-172.843,513.867L-160.949,509.593L-148.762,506.242L-136.354,503.833L-123.798,502.382L-111.169,501.896L-107.614,501.895L-106.203,501.894L-108.287,499.929L-116.866,490.488L-124.689,480.411L-131.711,469.761L-137.888,458.599L-143.185,446.994L-147.57,435.014L-151.016,422.732L-153.503,410.219L-155.015,397.552L-155.545,384.807L-155.088,372.058L-153.648,359.382L-151.233,346.856L-147.857,334.554L-143.541,322.549L-138.31,310.914L-132.196,299.718L-125.236,289.027L-117.47,278.906L-108.945,269.416L-108.4,268.895L-109.221,268.237L-110.069,267.554L-110.915,266.867L-111.761,266.174L-112.607,265.478L-113.451,264.776L-114.296,264.07L-115.138,263.36L-115.983,262.643L-116.825,261.923L-117.665,261.199L-118.508,260.468L-119.347,259.734L-120.185,258.995L-121.025,258.25L-121.862,257.5L-122.699,256.746L-123.534,255.987L-124.37,255.223L-125.202,254.455L-126.035,253.68L-126.866,252.902L-127.696,252.118L-128.527,251.327L-129.355,250.533L-130.18,249.735L-131.006,248.929L-131.831,248.119L-132.652,247.305L-133.473,246.485L-134.294,245.659L-135.113,244.828L-135.93,243.992L-136.745,243.151L-137.558,242.306L-138.37,241.454L-139.181,240.596L-139.99,239.734L-140.797,238.866L-141.601,237.993L-142.404,237.115L-143.206,236.23L-144.005,235.341L-144.802,234.446L-145.597,233.545L-146.39,232.64L-147.181,231.729L-147.97,230.811L-148.756,229.889L-149.54,228.962L-150.321,228.029L-151.1,227.09L-151.877,226.145L-152.651,225.195L-153.422,224.24L-154.191,223.279L-154.958,222.312L-155.721,221.341L-156.481,220.364L-157.239,219.381L-157.994,218.392L-158.746,217.397L-159.494,216.398L-160.24,215.392L-160.982,214.382L-161.721,213.366L-162.458,212.343L-163.19,211.316L-163.919,210.283L-164.645,209.244L-165.367,208.2L-166.086,207.151L-166.801,206.096L-167.512,205.036L-168.22,203.969L-168.924,202.898L-169.623,201.822L-170.319,200.739L-171.011,199.652L-171.699,198.559L-172.383,197.46L-173.062,196.357L-173.737,195.248L-174.408,194.134L-175.075,193.015L-175.737,191.89L-176.395,190.76L-177.048,189.624L-177.696,188.485L-178.339,187.34L-178.961,186.22L-179.485,185.266L-179.99,184.338L-180.494,183.402L-180.997,182.457L-181.5,181.503L-182.002,180.541L-182.502,179.571L-183.001,178.592L-183.5,177.602L-183.997,176.603L-184.492,175.597L-184.988,174.579L-185.482,173.549L-185.973,172.512L-186.463,171.464L-186.953,170.404L-187.44,169.333L-187.926,168.251L-188.409,167.158L-188.891,166.052L-189.371,164.934L-189.849,163.804L-190.325,162.661L-190.797,161.506L-191.268,160.338L-191.736,159.155L-192.201,157.96L-192.663,156.749L-193.121,155.526L-193.576,154.288L-194.029,153.032L-194.477,151.764L-194.92,150.481L-195.36,149.18L-195.796,147.864L-196.226,146.532L-196.652,145.182L-197.073,143.816L-197.488,142.433L-197.897,141.033L-198.3,139.615L-198.697,138.178L-199.087,136.723L-199.47,135.249L-199.845,133.756L-200.212,132.246L-200.571,130.715L-200.922,129.163L-201.263,127.593L-201.595,126.002L-201.917,124.39L-202.228,122.759L-202.528,121.106L-202.817,119.434L-203.094,117.739L-203.358,116.021L-203.609,114.283L-203.846,112.526L-204.069,110.745L-204.277,108.942L-204.47,107.118L-204.646,105.271L-204.806,103.404L-204.948,101.515L-205.071,99.602L-205.176,97.67L-205.262,95.716L-205.327,93.739L-205.371,91.742L-205.394,89.724L-205.394,87.685L-205.371,85.626L-205.324,83.547L-205.252,81.449L-205.155,79.332L-205.032,77.195L-204.882,75.039L-204.705,72.867L-204.499,70.679L-204.264,68.472L-204,66.252L-203.706,64.017L-203.381,61.766L-203.025,59.503L-202.636,57.229L-202.215,54.943L-201.761,52.646L-201.273,50.339L-200.752,48.026L-200.196,45.705L-199.605,43.377L-198.98,41.046L-198.32,38.714L-197.624,36.376L-196.892,34.039L-196.126,31.704L-195.323,29.369L-194.485,27.037L-193.612,24.711L-192.703,22.392L-191.76,20.078L-190.781,17.774L-189.769,15.481L-188.722,13.199L-187.642,10.93L-186.529,8.674L-185.384,6.437L-184.209,4.217L-183.001,2.012L-181.763,-0.172L-180.496,-2.335L-179.201,-4.476L-177.878,-6.595L-176.528,-8.688L-175.154,-10.757L-173.755,-12.798L-172.332,-14.816L-170.887,-16.803L-169.422,-18.76L-167.937,-20.689L-166.43,-22.589L-164.907,-24.459L-163.368,-26.295L-161.814,-28.1L-160.243,-29.875L-158.661,-31.616L-157.068,-33.322L-155.464,-34.996L-153.852,-36.635L-152.228,-38.244L-150.596,-39.819L-148.962,-41.358L-147.32,-42.864L-145.676,-44.337L-144.028,-45.775L-142.375,-47.184L-140.723,-48.556L-139.073,-49.894L-137.422,-51.202L-135.77,-52.478L-134.123,-53.721L-132.48,-54.931L-130.84,-56.111L-129.205,-57.26L-127.573,-58.38L-125.949,-59.468L-124.331,-60.528L-122.719,-61.558L-121.115,-62.561L-119.521,-63.534L-117.936,-64.48L-116.359,-65.399L-114.79,-66.294L-113.231,-67.161L-111.685,-68.003L-110.149,-68.82L-108.625,-69.612L-107.109,-70.383L-105.603,-71.13L-104.111,-71.855L-102.633,-72.556L-101.166,-73.237L-99.71,-73.897L-98.269,-74.535L-96.838,-75.154L-95.417,-75.756L-94.01,-76.338L-92.621,-76.899L-91.24,-77.444L-89.872,-77.973L-88.515,-78.485L-87.173,-78.979L-85.846,-79.457L-84.53,-79.92L-83.227,-80.368L-81.935,-80.801L-80.658,-81.22L-79.389,-81.626L-78.135,-82.019L-76.898,-82.396L-75.67,-82.762L-74.45,-83.117L-73.247,-83.459L-72.055,-83.789L-70.875,-84.109L-69.707,-84.416L-68.551,-84.714L-67.406,-85.002L-66.271,-85.279L-65.15,-85.547L-64.039,-85.806L-62.938,-86.055L-61.849,-86.295L-60.774,-86.527L-59.706,-86.751L-58.647,-86.967L-57.604,-87.174L-56.567,-87.374L-55.542,-87.567L-54.527,-87.752L-53.52,-87.931L-52.526,-88.103L-51.537,-88.269L-50.562,-88.428L-49.596,-88.581L-48.639,-88.728L-47.689,-88.869L-46.748,-89.005L-45.82,-89.134L-44.897,-89.259L-43.982,-89.379L-43.077,-89.494L-42.18,-89.604L-41.293,-89.709L-40.413,-89.81L-39.541,-89.906L-38.675,-89.999L-37.819,-90.086L-36.972,-90.17L-36.129,-90.25L-35.293,-90.326L-34.466,-90.399L-33.648,-90.467L-32.836,-90.532L-32.031,-90.594L-31.233,-90.653L-30.44,-90.708L-29.654,-90.761L-28.875,-90.81L-28.103,-90.856L-27.34,-90.9L-26.45,-90.947L-25.08,-91.014L-23.603,-91.078L-22.149,-91.131L-20.72,-91.176L-19.31,-91.212L-17.921,-91.239L-16.554,-91.26L-15.207,-91.272L-13.88,-91.278L-12.571,-91.278L-11.279,-91.271L-10.008,-91.259L-8.753,-91.241L-7.515,-91.217L-6.293,-91.189L-5.088,-91.156L-3.899,-91.119L-2.724,-91.078L-1.564,-91.032L-0.419,-90.983L0.71,-90.931L1.827,-90.875L2.931,-90.816L4.02,-90.754L5.096,-90.689L6.161,-90.621L7.212,-90.551L8.251,-90.479L9.278,-90.404L10.293,-90.328L11.297,-90.249L12.289,-90.169L13.27,-90.087L14.24,-90.003L15.198,-89.918L16.147,-89.831L17.085,-89.744L18.012,-89.655L18.929,-89.565L19.836,-89.474L20.732,-89.382L21.618,-89.29L22.495,-89.196L23.363,-89.102L24.221,-89.008L25.067,-88.913L25.905,-88.818L26.735,-88.722L27.553,-88.627L28.363,-88.531L29.163,-88.435L30.006,-88.333L31.502,-88.148L33.017,-87.957L34.496,-87.767L35.937,-87.58L37.34,-87.394L38.704,-87.211L40.03,-87.032L40.659,-86.946L40.939,-87.009L41.755,-87.189L42.588,-87.37L43.438,-87.551L44.304,-87.732L45.188,-87.914L46.093,-88.096L47.014,-88.277L47.952,-88.458L48.907,-88.638L49.883,-88.818L50.876,-88.996L51.884,-89.172L52.914,-89.347L53.961,-89.519L55.023,-89.689L56.106,-89.857L57.209,-90.022L58.325,-90.183L59.462,-90.341L60.618,-90.495L61.793,-90.645L62.983,-90.79L64.191,-90.93L65.419,-91.066L66.665,-91.196L67.929,-91.32L69.208,-91.438L70.506,-91.549L71.822,-91.653L73.156,-91.75L74.297,-91.826L75.326,-91.89L76.147,-91.94L76.966,-91.988L77.782,-92.035L78.599,-92.08L79.416,-92.125L80.229,-92.167L81.041,-92.209L81.854,-92.249L82.663,-92.288L83.472,-92.326L84.28,-92.362L85.087,-92.397L85.892,-92.431L86.696,-92.464L87.5,-92.495L88.3,-92.525L89.101,-92.554L89.9,-92.582L90.697,-92.608L91.493,-92.633L92.289,-92.658L93.083,-92.681L93.875,-92.702L94.666,-92.723L95.457,-92.743L96.245,-92.761L97.033,-92.778L97.82,-92.795L98.605,-92.81L99.388,-92.824L100.224,-92.838L101.731,-92.86L103.287,-92.878L104.838,-92.893L106.383,-92.903L107.924,-92.91L109.459,-92.913L110.99,-92.912L112.515,-92.907L114.035,-92.899L115.551,-92.887L117.06,-92.871L118.565,-92.852L120.065,-92.83L121.56,-92.805L123.049,-92.776L124.533,-92.745L126.012,-92.71L127.486,-92.672L128.955,-92.631L130.419,-92.588L131.878,-92.542L133.331,-92.492L134.78,-92.441L136.223,-92.387L137.661,-92.33L139.094,-92.271L140.522,-92.209L141.945,-92.145L143.363,-92.079L144.776,-92.011L146.183,-91.94L147.585,-91.867L148.983,-91.793L150.375,-91.716L151.762,-91.638L153.144,-91.558L154.521,-91.476L155.892,-91.392L157.259,-91.306L158.62,-91.219L159.977,-91.131L161.328,-91.041L162.674,-90.949L164.015,-90.856L165.351,-90.762L166.681,-90.666L168.007,-90.57L169.328,-90.472L170.643,-90.373L171.953,-90.273L173.258,-90.172L174.558,-90.07L175.853,-89.967L177.142,-89.863L178.426,-89.758L179.706,-89.653L180.981,-89.547L182.249,-89.44L183.513,-89.333L184.771,-89.225L186.025,-89.116L187.273,-89.007L188.517,-88.898L189.779,-88.786L192.212,-88.568L194.651,-88.347L197.069,-88.124L199.466,-87.902L201.842,-87.68L204.197,-87.458L206.53,-87.236L208.85,-87.015L213.392,-86.581L217.876,-86.151L220.078,-85.94L222.259,-85.733L224.418,-85.528L226.555,-85.326L228.669,-85.128L230.76,-84.934L232.829,-84.743L234.874,-84.557L236.924,-84.373L237.901,-84.287L238.898,-84.199L239.888,-84.112L240.873,-84.027L241.852,-83.943L243.103,-83.837L244.123,-83.747L245.376,-83.63L246.576,-83.512L247.725,-83.393L248.834,-83.273L249.902,-83.153L250.933,-83.032L251.93,-82.912L252.896,-82.792L253.833,-82.673L254.744,-82.554L255.63,-82.436L256.493,-82.318L257.335,-82.201L258.158,-82.085L258.961,-81.97L259.746,-81.855L260.516,-81.742L261.27,-81.629L262.07,-81.508L263.441,-81.297L264.832,-81.08L266.178,-80.867L267.483,-80.657L268.751,-80.452L269.982,-80.25L271.18,-80.053L272.348,-79.861L273.693,-79.639L274.605,-79.866L275.852,-80.173L277.097,-80.476L278.341,-80.775L279.583,-81.07L280.824,-81.362L282.064,-81.649L283.303,-81.934L284.54,-82.214L285.775,-82.49L287.009,-82.764L288.242,-83.033L289.472,-83.298L290.703,-83.561L291.931,-83.819L293.157,-84.074L294.382,-84.326L295.606,-84.574L296.829,-84.819L298.048,-85.06L299.267,-85.298L300.485,-85.532L301.7,-85.763L302.914,-85.991L304.128,-86.216L305.338,-86.437L306.547,-86.655L307.755,-86.87L308.962,-87.081L310.166,-87.29L311.369,-87.495L312.569,-87.697L313.769,-87.896L314.966,-88.092L316.162,-88.285L317.357,-88.475L318.55,-88.662L319.74,-88.846L320.928,-89.027L322.116,-89.205L323.302,-89.38L324.485,-89.552L325.667,-89.722L326.848,-89.889L328.027,-90.053L329.204,-90.214L330.378,-90.372L331.551,-90.528L332.722,-90.681L333.892,-90.831L335.06,-90.979L336.225,-91.124L337.39,-91.267L338.552,-91.407L339.712,-91.544L340.87,-91.679L342.027,-91.811L343.182,-91.941L344.335,-92.068L345.486,-92.193L346.635,-92.316L347.782,-92.436L348.929,-92.554L350.072,-92.67L351.213,-92.783L352.353,-92.894L353.491,-93.002L354.627,-93.109L355.762,-93.213L356.894,-93.315L358.024,-93.415L359.152,-93.512L360.278,-93.608L361.402,-93.701L362.526,-93.793L363.646,-93.882L364.765,-93.969L365.883,-94.054L366.997,-94.138L368.11,-94.219L369.221,-94.298L370.33,-94.375L371.437,-94.451L372.542,-94.524L373.646,-94.596L374.746,-94.666L375.846,-94.734L376.944,-94.8L378.039,-94.864L379.132,-94.927L380.224,-94.988L381.313,-95.047L382.401,-95.104L383.487,-95.16L384.57,-95.214L385.652,-95.267L386.731,-95.318L387.809,-95.367L388.885,-95.415L389.958,-95.461L391.03,-95.505L392.1,-95.548L393.167,-95.59L394.233,-95.63L395.297,-95.668L396.358,-95.705L397.418,-95.741L398.477,-95.775L399.532,-95.808L400.585,-95.84L401.637,-95.87L402.687,-95.899L403.734,-95.926L404.78,-95.952L405.824,-95.977L406.866,-96.001L407.905,-96.023L408.943,-96.044L409.978,-96.064L411.012,-96.083L412.044,-96.101L413.073,-96.117L414.101,-96.132L415.126,-96.147L416.149,-96.16L417.171,-96.172L418.19,-96.183L419.208,-96.192L420.223,-96.201L421.237,-96.209L422.248,-96.216L423.256,-96.222L424.264,-96.227L425.269,-96.231L426.272,-96.234L427.273,-96.236L428.308,-96.237L430.263,-96.236ZM1209.73,456.562L1210.36,457.231L1209.74,456.566L1209.48,456.304L1209.73,456.562Z" style="fill:white;"/>
    </g>
</svg>
